<mxfile host="65bd71144e">
    <diagram id="GrpZCegqyQvZPx4EdK1o" name="Page-1">
        <mxGraphModel dx="1078" dy="2382" grid="0" gridSize="10" guides="1" tooltips="1" connect="1" arrows="1" fold="1" page="0" pageScale="1" pageWidth="827" pageHeight="1169" background="#FFFFFF" math="0" shadow="0">
            <root>
                <mxCell id="0"/>
                <mxCell id="1" parent="0"/>
                <mxCell id="180" style="edgeStyle=none;html=1;exitX=0.5;exitY=0;exitDx=0;exitDy=0;entryX=0.5;entryY=1;entryDx=0;entryDy=0;endArrow=none;endFill=0;fontStyle=1" parent="1" source="2" target="44" edge="1">
                    <mxGeometry relative="1" as="geometry"/>
                </mxCell>
                <mxCell id="2" value="Book" style="whiteSpace=wrap;html=1;align=center;fontStyle=1" parent="1" vertex="1">
                    <mxGeometry x="2305" y="-870" width="100" height="40" as="geometry"/>
                </mxCell>
                <mxCell id="147" style="edgeStyle=none;html=1;exitX=0.5;exitY=0;exitDx=0;exitDy=0;entryX=0.5;entryY=1;entryDx=0;entryDy=0;endArrow=none;endFill=0;fontStyle=1" parent="1" source="17" target="40" edge="1">
                    <mxGeometry relative="1" as="geometry"/>
                </mxCell>
                <mxCell id="212" style="edgeStyle=none;html=1;exitX=1;exitY=1;exitDx=0;exitDy=0;entryX=0;entryY=0;entryDx=0;entryDy=0;endArrow=none;endFill=0;fontStyle=1" parent="1" source="17" target="204" edge="1">
                    <mxGeometry relative="1" as="geometry"/>
                </mxCell>
                <mxCell id="285" value="(0,N)" style="edgeLabel;html=1;align=center;verticalAlign=middle;resizable=0;points=[];fontStyle=1" parent="212" vertex="1" connectable="0">
                    <mxGeometry x="-0.0115" relative="1" as="geometry">
                        <mxPoint x="13" y="-7" as="offset"/>
                    </mxGeometry>
                </mxCell>
                <mxCell id="17" value="User" style="whiteSpace=wrap;html=1;align=center;fontStyle=1" parent="1" vertex="1">
                    <mxGeometry x="1600" y="-870" width="100" height="40" as="geometry"/>
                </mxCell>
                <mxCell id="31" value="Record" style="whiteSpace=wrap;html=1;align=center;" parent="1" vertex="1">
                    <mxGeometry x="42.5" y="1150" width="100" height="40" as="geometry"/>
                </mxCell>
                <mxCell id="53" value="Borrow_time" style="ellipse;whiteSpace=wrap;html=1;align=center;" parent="1" vertex="1">
                    <mxGeometry x="147.5" y="1040" width="80" height="40" as="geometry"/>
                </mxCell>
                <mxCell id="55" value="Message" style="ellipse;whiteSpace=wrap;html=1;align=center;fontStyle=1" parent="1" vertex="1">
                    <mxGeometry x="1940" y="-615" width="100" height="40" as="geometry"/>
                </mxCell>
                <mxCell id="40" value="Account_status" style="ellipse;whiteSpace=wrap;html=1;align=center;fontStyle=1" parent="1" vertex="1">
                    <mxGeometry x="1600" y="-935" width="100" height="40" as="geometry"/>
                </mxCell>
                <mxCell id="142" style="edgeStyle=none;html=1;exitX=0.5;exitY=0;exitDx=0;exitDy=0;entryX=0.5;entryY=1;entryDx=0;entryDy=0;endArrow=none;endFill=0;fontStyle=1" parent="1" source="85" target="83" edge="1">
                    <mxGeometry relative="1" as="geometry"/>
                </mxCell>
                <mxCell id="160" style="edgeStyle=none;html=1;exitX=0;exitY=0.5;exitDx=0;exitDy=0;entryX=1;entryY=0.5;entryDx=0;entryDy=0;startArrow=none;startFill=0;endArrow=none;endFill=0;fontStyle=1" parent="1" source="51" target="2" edge="1">
                    <mxGeometry relative="1" as="geometry"/>
                </mxCell>
                <mxCell id="51" value="Rent_condition" style="ellipse;whiteSpace=wrap;html=1;align=center;fontStyle=1" parent="1" vertex="1">
                    <mxGeometry x="2427.5" y="-870" width="104.5" height="40" as="geometry"/>
                </mxCell>
                <mxCell id="130" style="edgeStyle=none;html=1;exitX=0.5;exitY=1;exitDx=0;exitDy=0;entryX=0.5;entryY=0;entryDx=0;entryDy=0;endArrow=none;endFill=0;fontStyle=1" parent="1" source="128" target="75" edge="1">
                    <mxGeometry relative="1" as="geometry"/>
                </mxCell>
                <mxCell id="132" value="(1,1)" style="edgeLabel;html=1;align=center;verticalAlign=middle;resizable=0;points=[];fontStyle=1" parent="130" vertex="1" connectable="0">
                    <mxGeometry x="-0.14" y="-1" relative="1" as="geometry">
                        <mxPoint x="-16" as="offset"/>
                    </mxGeometry>
                </mxCell>
                <mxCell id="75" value="Want_Book" style="whiteSpace=wrap;html=1;align=center;fontStyle=1" parent="1" vertex="1">
                    <mxGeometry x="1600" y="-487.11" width="100" height="40" as="geometry"/>
                </mxCell>
                <mxCell id="146" style="edgeStyle=none;html=1;exitX=1;exitY=0;exitDx=0;exitDy=0;entryX=0;entryY=1;entryDx=0;entryDy=0;endArrow=none;endFill=0;fontStyle=1" parent="1" source="84" target="83" edge="1">
                    <mxGeometry relative="1" as="geometry"/>
                </mxCell>
                <mxCell id="84" value="Is_rent" style="ellipse;whiteSpace=wrap;html=1;align=center;fontStyle=1" parent="1" vertex="1">
                    <mxGeometry x="2187.5" y="-425" width="100" height="40" as="geometry"/>
                </mxCell>
                <mxCell id="49" value="Borrow_count" style="ellipse;whiteSpace=wrap;html=1;align=center;" parent="1" vertex="1">
                    <mxGeometry x="147.5" y="983" width="80" height="40" as="geometry"/>
                </mxCell>
                <mxCell id="108" value="HAS_RENT" style="shape=table;startSize=30;container=1;collapsible=0;childLayout=tableLayout;fontStyle=1;align=center;pointerEvents=1;" parent="1" vertex="1">
                    <mxGeometry x="72.5" y="1220" width="150" height="150" as="geometry"/>
                </mxCell>
                <mxCell id="109" value="" style="shape=partialRectangle;html=1;whiteSpace=wrap;collapsible=0;dropTarget=0;pointerEvents=0;fillColor=none;top=0;left=0;bottom=0;right=0;points=[[0,0.5],[1,0.5]];portConstraint=eastwest;" parent="108" vertex="1">
                    <mxGeometry y="30" width="150" height="40" as="geometry"/>
                </mxCell>
                <mxCell id="110" value="Account_ID" style="shape=partialRectangle;html=1;whiteSpace=wrap;connectable=0;fillColor=none;top=0;left=0;bottom=0;right=0;overflow=hidden;pointerEvents=1;" parent="109" vertex="1">
                    <mxGeometry width="80" height="40" as="geometry">
                        <mxRectangle width="80" height="40" as="alternateBounds"/>
                    </mxGeometry>
                </mxCell>
                <mxCell id="111" value="Book_ID" style="shape=partialRectangle;html=1;whiteSpace=wrap;connectable=0;fillColor=none;top=0;left=0;bottom=0;right=0;overflow=hidden;pointerEvents=1;" parent="109" vertex="1">
                    <mxGeometry x="80" width="70" height="40" as="geometry">
                        <mxRectangle width="70" height="40" as="alternateBounds"/>
                    </mxGeometry>
                </mxCell>
                <mxCell id="113" value="" style="shape=partialRectangle;html=1;whiteSpace=wrap;collapsible=0;dropTarget=0;pointerEvents=0;fillColor=none;top=0;left=0;bottom=0;right=0;points=[[0,0.5],[1,0.5]];portConstraint=eastwest;" parent="108" vertex="1">
                    <mxGeometry y="70" width="150" height="40" as="geometry"/>
                </mxCell>
                <mxCell id="114" value="" style="shape=partialRectangle;html=1;whiteSpace=wrap;connectable=0;fillColor=none;top=0;left=0;bottom=0;right=0;overflow=hidden;pointerEvents=1;" parent="113" vertex="1">
                    <mxGeometry width="80" height="40" as="geometry">
                        <mxRectangle width="80" height="40" as="alternateBounds"/>
                    </mxGeometry>
                </mxCell>
                <mxCell id="115" value="" style="shape=partialRectangle;html=1;whiteSpace=wrap;connectable=0;fillColor=none;top=0;left=0;bottom=0;right=0;overflow=hidden;pointerEvents=1;" parent="113" vertex="1">
                    <mxGeometry x="80" width="70" height="40" as="geometry">
                        <mxRectangle width="70" height="40" as="alternateBounds"/>
                    </mxGeometry>
                </mxCell>
                <mxCell id="117" value="" style="shape=partialRectangle;html=1;whiteSpace=wrap;collapsible=0;dropTarget=0;pointerEvents=0;fillColor=none;top=0;left=0;bottom=0;right=0;points=[[0,0.5],[1,0.5]];portConstraint=eastwest;" parent="108" vertex="1">
                    <mxGeometry y="110" width="150" height="40" as="geometry"/>
                </mxCell>
                <mxCell id="118" value="" style="shape=partialRectangle;html=1;whiteSpace=wrap;connectable=0;fillColor=none;top=0;left=0;bottom=0;right=0;overflow=hidden;pointerEvents=1;" parent="117" vertex="1">
                    <mxGeometry width="80" height="40" as="geometry">
                        <mxRectangle width="80" height="40" as="alternateBounds"/>
                    </mxGeometry>
                </mxCell>
                <mxCell id="119" value="" style="shape=partialRectangle;html=1;whiteSpace=wrap;connectable=0;fillColor=none;top=0;left=0;bottom=0;right=0;overflow=hidden;pointerEvents=1;" parent="117" vertex="1">
                    <mxGeometry x="80" width="70" height="40" as="geometry">
                        <mxRectangle width="70" height="40" as="alternateBounds"/>
                    </mxGeometry>
                </mxCell>
                <mxCell id="65" value="Rent_condition" style="whiteSpace=wrap;html=1;align=center;" parent="1" vertex="1">
                    <mxGeometry x="142.5" y="1100" width="100" height="40" as="geometry"/>
                </mxCell>
                <mxCell id="30" value="Rent_list" style="whiteSpace=wrap;html=1;align=center;" parent="1" vertex="1">
                    <mxGeometry x="135" y="900" width="100" height="40" as="geometry"/>
                </mxCell>
                <mxCell id="28" value="History" style="shape=ext;margin=3;double=1;whiteSpace=wrap;html=1;align=center;gradientColor=none;" parent="1" vertex="1">
                    <mxGeometry x="42.5" y="980" width="100" height="40" as="geometry"/>
                </mxCell>
                <mxCell id="44" value="Name" style="ellipse;whiteSpace=wrap;html=1;fontStyle=1" parent="1" vertex="1">
                    <mxGeometry x="2310" y="-935" width="90" height="40" as="geometry"/>
                </mxCell>
                <mxCell id="145" style="edgeStyle=none;html=1;exitX=0;exitY=0;exitDx=0;exitDy=0;entryX=1;entryY=1;entryDx=0;entryDy=0;endArrow=none;endFill=0;fontStyle=1" parent="1" source="86" target="83" edge="1">
                    <mxGeometry relative="1" as="geometry"/>
                </mxCell>
                <mxCell id="135" style="edgeStyle=none;html=1;exitX=0.5;exitY=0;exitDx=0;exitDy=0;endArrow=none;endFill=0;entryX=0.5;entryY=1;entryDx=0;entryDy=0;fontStyle=1" parent="1" source="79" target="75" edge="1">
                    <mxGeometry relative="1" as="geometry">
                        <mxPoint x="1650" y="-445" as="targetPoint"/>
                    </mxGeometry>
                </mxCell>
                <mxCell id="93" style="edgeStyle=none;html=1;exitX=1;exitY=0.5;exitDx=0;exitDy=0;entryX=0;entryY=0.5;entryDx=0;entryDy=0;endArrow=none;endFill=0;fontStyle=1" parent="1" source="91" target="2" edge="1">
                    <mxGeometry relative="1" as="geometry">
                        <mxPoint x="2135" y="-850" as="sourcePoint"/>
                    </mxGeometry>
                </mxCell>
                <mxCell id="122" value="(1,1)" style="edgeLabel;html=1;align=center;verticalAlign=middle;resizable=0;points=[];fontStyle=1" parent="93" vertex="1" connectable="0">
                    <mxGeometry x="-0.2582" y="2" relative="1" as="geometry">
                        <mxPoint x="10" y="-8" as="offset"/>
                    </mxGeometry>
                </mxCell>
                <mxCell id="151" style="edgeStyle=none;html=1;exitX=1;exitY=0.5;exitDx=0;exitDy=0;entryX=0;entryY=0.5;entryDx=0;entryDy=0;endArrow=none;endFill=0;fontStyle=1" parent="1" source="61" target="17" edge="1">
                    <mxGeometry relative="1" as="geometry"/>
                </mxCell>
                <mxCell id="90" value="Time_stamp" style="ellipse;whiteSpace=wrap;html=1;align=center;fontStyle=1" parent="1" vertex="1">
                    <mxGeometry x="2422.5" y="-487.11" width="100" height="40" as="geometry"/>
                </mxCell>
                <mxCell id="167" style="edgeStyle=none;html=1;exitX=0;exitY=0;exitDx=0;exitDy=0;entryX=0.75;entryY=1;entryDx=0;entryDy=0;endArrow=none;endFill=0;fontStyle=1" parent="1" source="63" target="2" edge="1">
                    <mxGeometry relative="1" as="geometry"/>
                </mxCell>
                <mxCell id="63" value="Book_ID" style="ellipse;whiteSpace=wrap;html=1;align=center;fontStyle=5;" parent="1" vertex="1">
                    <mxGeometry x="2427.5" y="-805" width="90" height="40" as="geometry"/>
                </mxCell>
                <mxCell id="54" value="Borrow_name" style="ellipse;whiteSpace=wrap;html=1;align=center;" parent="1" vertex="1">
                    <mxGeometry x="42.5" y="1040" width="100" height="40" as="geometry"/>
                </mxCell>
                <mxCell id="85" value="Is_available" style="ellipse;whiteSpace=wrap;html=1;align=center;fontStyle=1" parent="1" vertex="1">
                    <mxGeometry x="2305" y="-425" width="100" height="40" as="geometry"/>
                </mxCell>
                <mxCell id="60" value="Account_ID" style="ellipse;whiteSpace=wrap;html=1;align=center;" parent="1" vertex="1">
                    <mxGeometry x="247.5" y="910" width="80" height="30" as="geometry"/>
                </mxCell>
                <mxCell id="189" style="edgeStyle=none;html=1;exitX=1;exitY=0;exitDx=0;exitDy=0;entryX=0.25;entryY=1;entryDx=0;entryDy=0;endArrow=none;endFill=0;fontStyle=1" parent="1" source="43" target="2" edge="1">
                    <mxGeometry relative="1" as="geometry"/>
                </mxCell>
                <mxCell id="43" value="Category" style="ellipse;whiteSpace=wrap;html=1;align=center;fontStyle=1" parent="1" vertex="1">
                    <mxGeometry x="2192.5" y="-805" width="90" height="40" as="geometry"/>
                </mxCell>
                <mxCell id="79" value="Want_ISBN" style="ellipse;whiteSpace=wrap;html=1;align=center;fontStyle=5;" parent="1" vertex="1">
                    <mxGeometry x="1600" y="-425" width="100" height="40" as="geometry"/>
                </mxCell>
                <mxCell id="91" value="HAS_RENT" style="shape=rhombus;perimeter=rhombusPerimeter;whiteSpace=wrap;html=1;align=center;fontStyle=1" parent="1" vertex="1">
                    <mxGeometry x="1930" y="-880" width="120" height="60" as="geometry"/>
                </mxCell>
                <mxCell id="169" style="edgeStyle=none;html=1;exitX=0;exitY=1;exitDx=0;exitDy=0;entryX=0.75;entryY=0;entryDx=0;entryDy=0;endArrow=none;endFill=0;fontStyle=1" parent="1" source="46" target="2" edge="1">
                    <mxGeometry relative="1" as="geometry"/>
                </mxCell>
                <mxCell id="46" value="Author" style="ellipse;whiteSpace=wrap;html=1;align=center;fontStyle=1;fillColor=#f8cecc;strokeColor=#b85450;" parent="1" vertex="1">
                    <mxGeometry x="2427.5" y="-935" width="90" height="40" as="geometry"/>
                </mxCell>
                <mxCell id="143" style="edgeStyle=none;html=1;exitX=0;exitY=0.5;exitDx=0;exitDy=0;entryX=1;entryY=0.5;entryDx=0;entryDy=0;endArrow=none;endFill=0;fontStyle=1" parent="1" source="90" target="83" edge="1">
                    <mxGeometry relative="1" as="geometry"/>
                </mxCell>
                <mxCell id="92" style="edgeStyle=none;html=1;endArrow=none;endFill=0;entryX=1;entryY=0.5;entryDx=0;entryDy=0;exitX=0;exitY=0.5;exitDx=0;exitDy=0;fontStyle=1" parent="1" source="91" target="17" edge="1">
                    <mxGeometry relative="1" as="geometry">
                        <mxPoint x="1647.5" y="-825" as="targetPoint"/>
                    </mxGeometry>
                </mxCell>
                <mxCell id="121" value="(0,M)" style="edgeLabel;html=1;align=center;verticalAlign=middle;resizable=0;points=[];fontStyle=1" parent="92" vertex="1" connectable="0">
                    <mxGeometry x="0.0171" y="-3" relative="1" as="geometry">
                        <mxPoint y="-10" as="offset"/>
                    </mxGeometry>
                </mxCell>
                <mxCell id="128" value="HAS" style="shape=rhombus;perimeter=rhombusPerimeter;whiteSpace=wrap;html=1;align=center;fontStyle=1" parent="1" vertex="1">
                    <mxGeometry x="1590" y="-695" width="120" height="60" as="geometry"/>
                </mxCell>
                <mxCell id="187" style="edgeStyle=none;html=1;exitX=1;exitY=0;exitDx=0;exitDy=0;entryX=0;entryY=1;entryDx=0;entryDy=0;endArrow=none;endFill=0;fontStyle=1" parent="1" source="83" target="69" edge="1">
                    <mxGeometry relative="1" as="geometry"/>
                </mxCell>
                <mxCell id="83" value="Book_Status" style="whiteSpace=wrap;html=1;align=center;fontStyle=1" parent="1" vertex="1">
                    <mxGeometry x="2305" y="-487.11" width="100" height="40" as="geometry"/>
                </mxCell>
                <mxCell id="62" value="Book_ID" style="ellipse;whiteSpace=wrap;html=1;align=center;" parent="1" vertex="1">
                    <mxGeometry x="30" y="900" width="80" height="30" as="geometry"/>
                </mxCell>
                <mxCell id="188" style="edgeStyle=none;html=1;exitX=1;exitY=1;exitDx=0;exitDy=0;entryX=0.25;entryY=0;entryDx=0;entryDy=0;endArrow=none;endFill=0;fontStyle=1" parent="1" source="72" target="2" edge="1">
                    <mxGeometry relative="1" as="geometry"/>
                </mxCell>
                <mxCell id="72" value="ISBN" style="ellipse;whiteSpace=wrap;html=1;align=center;fontStyle=1" parent="1" vertex="1">
                    <mxGeometry x="2192.5" y="-935" width="90" height="40" as="geometry"/>
                </mxCell>
                <mxCell id="129" style="edgeStyle=none;html=1;exitX=0.5;exitY=0;exitDx=0;exitDy=0;entryX=0.5;entryY=1;entryDx=0;entryDy=0;endArrow=none;endFill=0;fontStyle=1" parent="1" source="128" target="17" edge="1">
                    <mxGeometry relative="1" as="geometry"/>
                </mxCell>
                <mxCell id="131" value="(0,8)" style="edgeLabel;html=1;align=center;verticalAlign=middle;resizable=0;points=[];fontStyle=1" parent="129" vertex="1" connectable="0">
                    <mxGeometry relative="1" as="geometry">
                        <mxPoint x="-17" as="offset"/>
                    </mxGeometry>
                </mxCell>
                <mxCell id="86" value="Is_placed" style="ellipse;whiteSpace=wrap;html=1;align=center;fontStyle=1" parent="1" vertex="1">
                    <mxGeometry x="2422.5" y="-425" width="100" height="40" as="geometry"/>
                </mxCell>
                <mxCell id="174" style="edgeStyle=none;html=1;exitX=0.5;exitY=1;exitDx=0;exitDy=0;entryX=0.5;entryY=0;entryDx=0;entryDy=0;endArrow=none;endFill=0;fontStyle=1" parent="1" source="202" target="55" edge="1">
                    <mxGeometry relative="1" as="geometry">
                        <mxPoint x="1946" y="-595" as="sourcePoint"/>
                    </mxGeometry>
                </mxCell>
                <mxCell id="69" value="Book_ID" style="ellipse;whiteSpace=wrap;html=1;align=center;fontStyle=5;" parent="1" vertex="1">
                    <mxGeometry x="2422.5" y="-545" width="100" height="40" as="geometry"/>
                </mxCell>
                <mxCell id="61" value="Account_ID" style="ellipse;whiteSpace=wrap;html=1;align=center;fontStyle=5;" parent="1" vertex="1">
                    <mxGeometry x="1480" y="-870" width="100" height="40" as="geometry"/>
                </mxCell>
                <mxCell id="155" style="edgeStyle=none;html=1;exitX=0.5;exitY=0;exitDx=0;exitDy=0;entryX=0.75;entryY=0;entryDx=0;entryDy=0;startArrow=none;startFill=0;endArrow=none;endFill=0;fontStyle=1" parent="1" edge="1">
                    <mxGeometry relative="1" as="geometry">
                        <mxPoint x="2353" y="-870" as="sourcePoint"/>
                        <mxPoint x="2378" y="-870" as="targetPoint"/>
                    </mxGeometry>
                </mxCell>
                <mxCell id="183" style="edgeStyle=none;html=1;exitX=0;exitY=0.5;exitDx=0;exitDy=0;entryX=1;entryY=0.5;entryDx=0;entryDy=0;endArrow=none;endFill=0;fontStyle=1" parent="1" source="182" target="75" edge="1">
                    <mxGeometry relative="1" as="geometry"/>
                </mxCell>
                <mxCell id="185" value="(1,1)" style="edgeLabel;html=1;align=center;verticalAlign=middle;resizable=0;points=[];fontStyle=1" parent="183" connectable="0" vertex="1">
                    <mxGeometry x="-0.0225" relative="1" as="geometry">
                        <mxPoint x="-1" y="-10" as="offset"/>
                    </mxGeometry>
                </mxCell>
                <mxCell id="184" style="edgeStyle=none;html=1;exitX=1;exitY=0.5;exitDx=0;exitDy=0;endArrow=none;endFill=0;entryX=0;entryY=0.5;entryDx=0;entryDy=0;fontStyle=1" parent="1" source="182" target="83" edge="1">
                    <mxGeometry relative="1" as="geometry">
                        <mxPoint x="2135" y="-575" as="targetPoint"/>
                    </mxGeometry>
                </mxCell>
                <mxCell id="186" value="(0,1)" style="edgeLabel;html=1;align=center;verticalAlign=middle;resizable=0;points=[];fontStyle=1" parent="184" connectable="0" vertex="1">
                    <mxGeometry x="0.0101" relative="1" as="geometry">
                        <mxPoint x="-1" y="-9" as="offset"/>
                    </mxGeometry>
                </mxCell>
                <mxCell id="182" value="UPDATES" style="shape=rhombus;perimeter=rhombusPerimeter;whiteSpace=wrap;html=1;align=center;fontStyle=1" parent="1" vertex="1">
                    <mxGeometry x="1935" y="-497.11" width="120" height="60" as="geometry"/>
                </mxCell>
                <mxCell id="208" style="edgeStyle=none;html=1;exitX=1;exitY=0.5;exitDx=0;exitDy=0;entryX=0;entryY=0.5;entryDx=0;entryDy=0;endArrow=none;endFill=0;" parent="1" source="202" edge="1">
                    <mxGeometry relative="1" as="geometry"/>
                </mxCell>
                <mxCell id="209" style="edgeStyle=none;html=1;exitX=1;exitY=0.5;exitDx=0;exitDy=0;entryX=0;entryY=0.5;entryDx=0;entryDy=0;endArrow=none;endFill=0;" parent="1" source="202" edge="1">
                    <mxGeometry relative="1" as="geometry"/>
                </mxCell>
                <mxCell id="210" style="edgeStyle=none;html=1;exitX=1;exitY=0.5;exitDx=0;exitDy=0;entryX=0;entryY=0.5;entryDx=0;entryDy=0;endArrow=none;endFill=0;" parent="1" source="202" edge="1">
                    <mxGeometry relative="1" as="geometry"/>
                </mxCell>
                <mxCell id="202" value="Noticification" style="shape=ext;margin=3;double=1;whiteSpace=wrap;html=1;align=center;fontStyle=1" parent="1" vertex="1">
                    <mxGeometry x="1940" y="-685" width="100" height="40" as="geometry"/>
                </mxCell>
                <mxCell id="213" style="edgeStyle=none;html=1;exitX=1;exitY=1;exitDx=0;exitDy=0;entryX=0;entryY=0;entryDx=0;entryDy=0;endArrow=none;endFill=0;fontStyle=1" parent="1" source="204" target="202" edge="1">
                    <mxGeometry relative="1" as="geometry"/>
                </mxCell>
                <mxCell id="286" value="(1,1)" style="edgeLabel;html=1;align=center;verticalAlign=middle;resizable=0;points=[];fontStyle=1" parent="213" vertex="1" connectable="0">
                    <mxGeometry x="0.0043" relative="1" as="geometry">
                        <mxPoint x="13" y="-10" as="offset"/>
                    </mxGeometry>
                </mxCell>
                <mxCell id="204" value="RECEIVE" style="shape=rhombus;double=1;perimeter=rhombusPerimeter;whiteSpace=wrap;html=1;align=center;fontStyle=1" parent="1" vertex="1">
                    <mxGeometry x="1765" y="-780" width="120" height="60" as="geometry"/>
                </mxCell>
                <mxCell id="265" style="edgeStyle=none;html=1;exitX=1;exitY=0.3333333333333333;exitDx=0;exitDy=0;exitPerimeter=0;endArrow=none;endFill=0;" parent="1" source="219" target="250" edge="1">
                    <mxGeometry relative="1" as="geometry"/>
                </mxCell>
                <mxCell id="281" style="edgeStyle=none;html=1;exitX=1;exitY=0.3333333333333333;exitDx=0;exitDy=0;exitPerimeter=0;entryX=0;entryY=0.5;entryDx=0;entryDy=0;endArrow=none;endFill=0;" parent="1" source="219" target="251" edge="1">
                    <mxGeometry relative="1" as="geometry"/>
                </mxCell>
                <mxCell id="219" value="1" style="shape=umlActor;verticalLabelPosition=bottom;verticalAlign=top;html=1;outlineConnect=0;" parent="1" vertex="1">
                    <mxGeometry x="550" y="880" width="30" height="60" as="geometry"/>
                </mxCell>
                <mxCell id="289" style="edgeStyle=none;html=1;exitX=1;exitY=0.3333333333333333;exitDx=0;exitDy=0;exitPerimeter=0;entryX=0;entryY=0.5;entryDx=0;entryDy=0;endArrow=none;endFill=0;" parent="1" source="220" target="257" edge="1">
                    <mxGeometry relative="1" as="geometry"/>
                </mxCell>
                <mxCell id="220" value="2" style="shape=umlActor;verticalLabelPosition=bottom;verticalAlign=top;html=1;outlineConnect=0;" parent="1" vertex="1">
                    <mxGeometry x="550" y="990" width="30" height="60" as="geometry"/>
                </mxCell>
                <mxCell id="268" style="edgeStyle=none;html=1;exitX=1;exitY=0.3333333333333333;exitDx=0;exitDy=0;exitPerimeter=0;entryX=0;entryY=0.5;entryDx=0;entryDy=0;endArrow=none;endFill=0;" parent="1" source="221" target="252" edge="1">
                    <mxGeometry relative="1" as="geometry"/>
                </mxCell>
                <mxCell id="221" value="3" style="shape=umlActor;verticalLabelPosition=bottom;verticalAlign=top;html=1;outlineConnect=0;" parent="1" vertex="1">
                    <mxGeometry x="550" y="1110" width="30" height="60" as="geometry"/>
                </mxCell>
                <mxCell id="270" style="edgeStyle=none;html=1;exitX=1;exitY=0.3333333333333333;exitDx=0;exitDy=0;exitPerimeter=0;entryX=0;entryY=0.5;entryDx=0;entryDy=0;endArrow=none;endFill=0;" parent="1" source="222" target="253" edge="1">
                    <mxGeometry relative="1" as="geometry"/>
                </mxCell>
                <mxCell id="222" value="4" style="shape=umlActor;verticalLabelPosition=bottom;verticalAlign=top;html=1;outlineConnect=0;" parent="1" vertex="1">
                    <mxGeometry x="550" y="1220" width="30" height="60" as="geometry"/>
                </mxCell>
                <mxCell id="273" style="edgeStyle=none;html=1;exitX=1;exitY=0.3333333333333333;exitDx=0;exitDy=0;exitPerimeter=0;entryX=0;entryY=0.5;entryDx=0;entryDy=0;endArrow=none;endFill=0;" parent="1" source="223" target="254" edge="1">
                    <mxGeometry relative="1" as="geometry"/>
                </mxCell>
                <mxCell id="282" style="edgeStyle=none;html=1;exitX=1;exitY=0.3333333333333333;exitDx=0;exitDy=0;exitPerimeter=0;entryX=0;entryY=0.5;entryDx=0;entryDy=0;endArrow=none;endFill=0;" parent="1" source="223" target="255" edge="1">
                    <mxGeometry relative="1" as="geometry"/>
                </mxCell>
                <mxCell id="223" value="5" style="shape=umlActor;verticalLabelPosition=bottom;verticalAlign=top;html=1;outlineConnect=0;" parent="1" vertex="1">
                    <mxGeometry x="550" y="1330" width="30" height="60" as="geometry"/>
                </mxCell>
                <mxCell id="276" style="edgeStyle=none;html=1;exitX=1;exitY=0.3333333333333333;exitDx=0;exitDy=0;exitPerimeter=0;entryX=0;entryY=0.5;entryDx=0;entryDy=0;endArrow=none;endFill=0;" parent="1" source="224" target="256" edge="1">
                    <mxGeometry relative="1" as="geometry"/>
                </mxCell>
                <mxCell id="224" value="6" style="shape=umlActor;verticalLabelPosition=bottom;verticalAlign=top;html=1;outlineConnect=0;" parent="1" vertex="1">
                    <mxGeometry x="550" y="1440" width="30" height="60" as="geometry"/>
                </mxCell>
                <mxCell id="225" value="7" style="shape=umlActor;verticalLabelPosition=bottom;verticalAlign=top;html=1;outlineConnect=0;" parent="1" vertex="1">
                    <mxGeometry x="550" y="1540" width="30" height="60" as="geometry"/>
                </mxCell>
                <mxCell id="226" value="8" style="shape=umlActor;verticalLabelPosition=bottom;verticalAlign=top;html=1;outlineConnect=0;" parent="1" vertex="1">
                    <mxGeometry x="550" y="1650" width="30" height="60" as="geometry"/>
                </mxCell>
                <mxCell id="236" value="A" style="html=1;" parent="1" vertex="1">
                    <mxGeometry x="1131" y="810" width="110" height="50" as="geometry"/>
                </mxCell>
                <mxCell id="239" value="B" style="html=1;" parent="1" vertex="1">
                    <mxGeometry x="1131" y="900" width="110" height="50" as="geometry"/>
                </mxCell>
                <mxCell id="240" value="C" style="html=1;" parent="1" vertex="1">
                    <mxGeometry x="1131" y="990" width="110" height="50" as="geometry"/>
                </mxCell>
                <mxCell id="241" value="D" style="html=1;" parent="1" vertex="1">
                    <mxGeometry x="1131" y="1080" width="110" height="50" as="geometry"/>
                </mxCell>
                <mxCell id="242" value="E" style="html=1;" parent="1" vertex="1">
                    <mxGeometry x="1131" y="1160" width="110" height="50" as="geometry"/>
                </mxCell>
                <mxCell id="243" value="F" style="html=1;" parent="1" vertex="1">
                    <mxGeometry x="1131" y="1250" width="110" height="50" as="geometry"/>
                </mxCell>
                <mxCell id="244" value="G" style="html=1;" parent="1" vertex="1">
                    <mxGeometry x="1131" y="1320" width="110" height="50" as="geometry"/>
                </mxCell>
                <mxCell id="245" value="H" style="html=1;" parent="1" vertex="1">
                    <mxGeometry x="1131" y="1410" width="110" height="50" as="geometry"/>
                </mxCell>
                <mxCell id="246" value="I" style="html=1;" parent="1" vertex="1">
                    <mxGeometry x="1131" y="1490" width="110" height="50" as="geometry"/>
                </mxCell>
                <mxCell id="247" value="J" style="html=1;" parent="1" vertex="1">
                    <mxGeometry x="1131" y="1580" width="110" height="50" as="geometry"/>
                </mxCell>
                <mxCell id="248" value="K" style="html=1;" parent="1" vertex="1">
                    <mxGeometry x="1131" y="1660" width="110" height="50" as="geometry"/>
                </mxCell>
                <mxCell id="249" value="L" style="html=1;" parent="1" vertex="1">
                    <mxGeometry x="1131" y="1750" width="110" height="50" as="geometry"/>
                </mxCell>
                <mxCell id="266" style="edgeStyle=none;html=1;entryX=0;entryY=0.5;entryDx=0;entryDy=0;endArrow=none;endFill=0;" parent="1" source="250" target="236" edge="1">
                    <mxGeometry relative="1" as="geometry"/>
                </mxCell>
                <mxCell id="267" style="edgeStyle=none;html=1;exitX=1;exitY=0.5;exitDx=0;exitDy=0;entryX=0;entryY=0.5;entryDx=0;entryDy=0;endArrow=none;endFill=0;" parent="1" source="251" target="240" edge="1">
                    <mxGeometry relative="1" as="geometry"/>
                </mxCell>
                <mxCell id="250" value="" style="ellipse;whiteSpace=wrap;html=1;aspect=fixed;" parent="1" vertex="1">
                    <mxGeometry x="842.5" y="880" width="40" height="40" as="geometry"/>
                </mxCell>
                <mxCell id="251" value="" style="ellipse;whiteSpace=wrap;html=1;aspect=fixed;" parent="1" vertex="1">
                    <mxGeometry x="842.5" y="950" width="40" height="40" as="geometry"/>
                </mxCell>
                <mxCell id="269" style="edgeStyle=none;html=1;exitX=1;exitY=0.5;exitDx=0;exitDy=0;entryX=0;entryY=0.5;entryDx=0;entryDy=0;endArrow=none;endFill=0;" parent="1" source="252" target="239" edge="1">
                    <mxGeometry relative="1" as="geometry"/>
                </mxCell>
                <mxCell id="252" value="" style="ellipse;whiteSpace=wrap;html=1;aspect=fixed;" parent="1" vertex="1">
                    <mxGeometry x="842.5" y="1025" width="40" height="40" as="geometry"/>
                </mxCell>
                <mxCell id="272" style="edgeStyle=none;html=1;exitX=1;exitY=0.5;exitDx=0;exitDy=0;entryX=0;entryY=0.5;entryDx=0;entryDy=0;endArrow=none;endFill=0;" parent="1" source="253" target="241" edge="1">
                    <mxGeometry relative="1" as="geometry"/>
                </mxCell>
                <mxCell id="253" value="" style="ellipse;whiteSpace=wrap;html=1;aspect=fixed;" parent="1" vertex="1">
                    <mxGeometry x="842.5" y="1107.5" width="40" height="40" as="geometry"/>
                </mxCell>
                <mxCell id="274" style="edgeStyle=none;html=1;exitX=1;exitY=0.5;exitDx=0;exitDy=0;entryX=0;entryY=0.5;entryDx=0;entryDy=0;endArrow=none;endFill=0;" parent="1" source="254" target="242" edge="1">
                    <mxGeometry relative="1" as="geometry"/>
                </mxCell>
                <mxCell id="275" style="edgeStyle=none;html=1;exitX=1;exitY=0.5;exitDx=0;exitDy=0;entryX=0;entryY=0.5;entryDx=0;entryDy=0;endArrow=none;endFill=0;" parent="1" source="255" target="245" edge="1">
                    <mxGeometry relative="1" as="geometry"/>
                </mxCell>
                <mxCell id="254" value="" style="ellipse;whiteSpace=wrap;html=1;aspect=fixed;" parent="1" vertex="1">
                    <mxGeometry x="842.5" y="1177.5" width="40" height="40" as="geometry"/>
                </mxCell>
                <mxCell id="255" value="" style="ellipse;whiteSpace=wrap;html=1;aspect=fixed;" parent="1" vertex="1">
                    <mxGeometry x="842.5" y="1252.5" width="40" height="40" as="geometry"/>
                </mxCell>
                <mxCell id="277" style="edgeStyle=none;html=1;exitX=1;exitY=0.5;exitDx=0;exitDy=0;entryX=0;entryY=0.5;entryDx=0;entryDy=0;endArrow=none;endFill=0;" parent="1" source="256" target="247" edge="1">
                    <mxGeometry relative="1" as="geometry"/>
                </mxCell>
                <mxCell id="256" value="" style="ellipse;whiteSpace=wrap;html=1;aspect=fixed;" parent="1" vertex="1">
                    <mxGeometry x="842.5" y="1330" width="40" height="40" as="geometry"/>
                </mxCell>
                <mxCell id="257" value="" style="ellipse;whiteSpace=wrap;html=1;aspect=fixed;" parent="1" vertex="1">
                    <mxGeometry x="842.5" y="1400" width="40" height="40" as="geometry"/>
                </mxCell>
                <mxCell id="258" value="" style="ellipse;whiteSpace=wrap;html=1;aspect=fixed;" parent="1" vertex="1">
                    <mxGeometry x="842.5" y="1475" width="40" height="40" as="geometry"/>
                </mxCell>
                <mxCell id="259" value="" style="ellipse;whiteSpace=wrap;html=1;aspect=fixed;" parent="1" vertex="1">
                    <mxGeometry x="842.5" y="1557.5" width="40" height="40" as="geometry"/>
                </mxCell>
                <mxCell id="260" value="" style="ellipse;whiteSpace=wrap;html=1;aspect=fixed;" parent="1" vertex="1">
                    <mxGeometry x="842.5" y="1627.5" width="40" height="40" as="geometry"/>
                </mxCell>
                <mxCell id="261" value="" style="ellipse;whiteSpace=wrap;html=1;aspect=fixed;" parent="1" vertex="1">
                    <mxGeometry x="842.5" y="1702.5" width="40" height="40" as="geometry"/>
                </mxCell>
                <mxCell id="278" style="edgeStyle=none;html=1;entryX=-0.031;entryY=0.5;entryDx=0;entryDy=0;entryPerimeter=0;endArrow=none;endFill=0;" parent="1" source="262" target="263" edge="1">
                    <mxGeometry relative="1" as="geometry"/>
                </mxCell>
                <mxCell id="280" value="(0,M)" style="edgeLabel;html=1;align=center;verticalAlign=middle;resizable=0;points=[];" parent="278" connectable="0" vertex="1">
                    <mxGeometry x="0.0024" y="3" relative="1" as="geometry">
                        <mxPoint as="offset"/>
                    </mxGeometry>
                </mxCell>
                <mxCell id="262" value="User" style="text;html=1;align=center;verticalAlign=middle;resizable=0;points=[];autosize=1;strokeColor=none;fillColor=none;" parent="1" vertex="1">
                    <mxGeometry x="550" y="800" width="40" height="20" as="geometry"/>
                </mxCell>
                <mxCell id="279" value="(1,1)" style="edgeStyle=none;html=1;entryX=-0.125;entryY=0.479;entryDx=0;entryDy=0;entryPerimeter=0;endArrow=none;endFill=0;" parent="1" source="263" target="264" edge="1">
                    <mxGeometry relative="1" as="geometry"/>
                </mxCell>
                <mxCell id="263" value="HAS_RENT" style="text;html=1;align=center;verticalAlign=middle;resizable=0;points=[];autosize=1;strokeColor=none;fillColor=none;" parent="1" vertex="1">
                    <mxGeometry x="822.5" y="800" width="80" height="20" as="geometry"/>
                </mxCell>
                <mxCell id="264" value="Book" style="text;html=1;align=center;verticalAlign=middle;resizable=0;points=[];autosize=1;strokeColor=none;fillColor=none;" parent="1" vertex="1">
                    <mxGeometry x="1166" y="760" width="40" height="20" as="geometry"/>
                </mxCell>
                <mxCell id="287" value="1" style="text;html=1;align=center;verticalAlign=middle;resizable=0;points=[];autosize=1;strokeColor=none;fillColor=none;" parent="1" vertex="1">
                    <mxGeometry x="690" y="830" width="20" height="20" as="geometry"/>
                </mxCell>
                <mxCell id="288" value="M" style="text;html=1;align=center;verticalAlign=middle;resizable=0;points=[];autosize=1;strokeColor=none;fillColor=none;" parent="1" vertex="1">
                    <mxGeometry x="985" y="810" width="30" height="20" as="geometry"/>
                </mxCell>
                <mxCell id="294" style="edgeStyle=none;html=1;exitX=1;exitY=0.5;exitDx=0;exitDy=0;entryX=0;entryY=0.5;entryDx=0;entryDy=0;endArrow=none;endFill=0;fontStyle=1" parent="1" source="293" target="75" edge="1">
                    <mxGeometry relative="1" as="geometry"/>
                </mxCell>
                <mxCell id="293" value="Account_ID" style="ellipse;whiteSpace=wrap;html=1;align=center;fontStyle=5;" parent="1" vertex="1">
                    <mxGeometry x="1475" y="-487.11" width="100" height="40" as="geometry"/>
                </mxCell>
                <mxCell id="359" style="edgeStyle=none;html=1;exitX=1;exitY=0.5;exitDx=0;exitDy=0;entryX=0;entryY=0.5;entryDx=0;entryDy=0;fontStyle=1" parent="1" source="295" target="296" edge="1">
                    <mxGeometry relative="1" as="geometry"/>
                </mxCell>
                <mxCell id="295" value="Start Group project Discussion" style="rounded=1;whiteSpace=wrap;html=1;fontStyle=1" parent="1" vertex="1">
                    <mxGeometry x="80" y="2010" width="127.5" height="80" as="geometry"/>
                </mxCell>
                <mxCell id="360" style="edgeStyle=none;html=1;exitX=1;exitY=0.5;exitDx=0;exitDy=0;entryX=0;entryY=0.5;entryDx=0;entryDy=0;fontStyle=1" parent="1" source="296" target="297" edge="1">
                    <mxGeometry relative="1" as="geometry"/>
                </mxCell>
                <mxCell id="296" value="Basically Finished ER Diagram" style="rounded=1;whiteSpace=wrap;html=1;fontStyle=1" parent="1" vertex="1">
                    <mxGeometry x="257.5" y="2010" width="125" height="80" as="geometry"/>
                </mxCell>
                <mxCell id="361" style="edgeStyle=none;html=1;exitX=1;exitY=0.5;exitDx=0;exitDy=0;entryX=0;entryY=0.5;entryDx=0;entryDy=0;fontStyle=1" parent="1" source="297" target="303" edge="1">
                    <mxGeometry relative="1" as="geometry"/>
                </mxCell>
                <mxCell id="297" value="Finished First Stage" style="rounded=1;whiteSpace=wrap;html=1;fontStyle=1" parent="1" vertex="1">
                    <mxGeometry x="430" y="2010" width="130" height="80" as="geometry"/>
                </mxCell>
                <mxCell id="362" style="edgeStyle=none;html=1;exitX=1;exitY=0.5;exitDx=0;exitDy=0;entryX=0;entryY=0.5;entryDx=0;entryDy=0;fontStyle=1" parent="1" source="303" target="304" edge="1">
                    <mxGeometry relative="1" as="geometry"/>
                </mxCell>
                <mxCell id="303" value="&lt;span&gt;Start Second Stage&lt;/span&gt;" style="shape=step;perimeter=stepPerimeter;whiteSpace=wrap;html=1;fixedSize=1;fontStyle=1" parent="1" vertex="1">
                    <mxGeometry x="600" y="2010" width="160" height="80" as="geometry"/>
                </mxCell>
                <mxCell id="363" style="edgeStyle=none;html=1;exitX=1;exitY=0.5;exitDx=0;exitDy=0;entryX=0;entryY=0.5;entryDx=0;entryDy=0;fontStyle=1" parent="1" source="304" target="307" edge="1">
                    <mxGeometry relative="1" as="geometry"/>
                </mxCell>
                <mxCell id="365" style="edgeStyle=none;html=1;exitX=0.75;exitY=1;exitDx=0;exitDy=0;entryX=0;entryY=0.5;entryDx=0;entryDy=0;fontStyle=1" parent="1" source="304" target="306" edge="1">
                    <mxGeometry relative="1" as="geometry">
                        <Array as="points">
                            <mxPoint x="910" y="2190"/>
                        </Array>
                    </mxGeometry>
                </mxCell>
                <mxCell id="435" style="edgeStyle=none;html=1;exitX=0.75;exitY=0;exitDx=0;exitDy=0;entryX=0;entryY=0.5;entryDx=0;entryDy=0;fontStyle=1" parent="1" source="304" target="305" edge="1">
                    <mxGeometry relative="1" as="geometry">
                        <Array as="points">
                            <mxPoint x="910" y="1920"/>
                        </Array>
                    </mxGeometry>
                </mxCell>
                <mxCell id="304" value="Finished Database Programming" style="shape=step;perimeter=stepPerimeter;whiteSpace=wrap;html=1;fixedSize=1;fontStyle=1" parent="1" vertex="1">
                    <mxGeometry x="790" y="2010" width="160" height="80" as="geometry"/>
                </mxCell>
                <mxCell id="436" style="edgeStyle=none;html=1;exitX=1;exitY=0.5;exitDx=0;exitDy=0;entryX=0.25;entryY=0;entryDx=0;entryDy=0;fontStyle=1" parent="1" source="305" target="366" edge="1">
                    <mxGeometry relative="1" as="geometry">
                        <Array as="points">
                            <mxPoint x="1250" y="1920"/>
                        </Array>
                    </mxGeometry>
                </mxCell>
                <mxCell id="305" value="Finished Project Report" style="shape=step;perimeter=stepPerimeter;whiteSpace=wrap;html=1;fixedSize=1;fontStyle=1" parent="1" vertex="1">
                    <mxGeometry x="981" y="1880" width="180" height="80" as="geometry"/>
                </mxCell>
                <mxCell id="425" style="edgeStyle=none;html=1;exitX=1;exitY=0.5;exitDx=0;exitDy=0;entryX=0.25;entryY=1;entryDx=0;entryDy=0;fontStyle=1" parent="1" source="306" target="366" edge="1">
                    <mxGeometry relative="1" as="geometry">
                        <Array as="points">
                            <mxPoint x="1250" y="2190"/>
                        </Array>
                    </mxGeometry>
                </mxCell>
                <mxCell id="306" value="Finished Presentation Preparation" style="shape=step;perimeter=stepPerimeter;whiteSpace=wrap;html=1;fixedSize=1;fontStyle=1" parent="1" vertex="1">
                    <mxGeometry x="986" y="2150" width="170" height="80" as="geometry"/>
                </mxCell>
                <mxCell id="394" style="edgeStyle=none;html=1;exitX=1;exitY=0.5;exitDx=0;exitDy=0;entryX=0;entryY=0.5;entryDx=0;entryDy=0;fontStyle=1" parent="1" source="307" target="366" edge="1">
                    <mxGeometry relative="1" as="geometry"/>
                </mxCell>
                <mxCell id="307" value="Finished Video &lt;br&gt;Demostartion" style="shape=step;perimeter=stepPerimeter;whiteSpace=wrap;html=1;fixedSize=1;fontStyle=1" parent="1" vertex="1">
                    <mxGeometry x="991" y="2010" width="160" height="80" as="geometry"/>
                </mxCell>
                <mxCell id="308" value="User" style="shape=table;startSize=35;container=1;collapsible=0;childLayout=tableLayout;fontStyle=1;align=center;pointerEvents=1;" parent="1" vertex="1">
                    <mxGeometry x="1530" y="115" width="200" height="110" as="geometry"/>
                </mxCell>
                <mxCell id="309" value="" style="shape=partialRectangle;html=1;whiteSpace=wrap;collapsible=0;dropTarget=0;pointerEvents=0;fillColor=none;top=0;left=0;bottom=0;right=0;points=[[0,0.5],[1,0.5]];portConstraint=eastwest;" parent="308" vertex="1">
                    <mxGeometry y="35" width="200" height="38" as="geometry"/>
                </mxCell>
                <mxCell id="356" value="&lt;u&gt;Account_ID&lt;/u&gt;" style="shape=partialRectangle;html=1;whiteSpace=wrap;connectable=0;fillColor=none;top=0;left=0;bottom=0;right=0;overflow=hidden;pointerEvents=1;" parent="309" vertex="1">
                    <mxGeometry width="100" height="38" as="geometry">
                        <mxRectangle width="100" height="38" as="alternateBounds"/>
                    </mxGeometry>
                </mxCell>
                <mxCell id="350" value="Account_status" style="shape=partialRectangle;html=1;whiteSpace=wrap;connectable=0;fillColor=none;top=0;left=0;bottom=0;right=0;overflow=hidden;pointerEvents=1;" parent="309" vertex="1">
                    <mxGeometry x="100" width="100" height="38" as="geometry">
                        <mxRectangle width="100" height="38" as="alternateBounds"/>
                    </mxGeometry>
                </mxCell>
                <mxCell id="313" value="" style="shape=partialRectangle;html=1;whiteSpace=wrap;collapsible=0;dropTarget=0;pointerEvents=0;fillColor=none;top=0;left=0;bottom=0;right=0;points=[[0,0.5],[1,0.5]];portConstraint=eastwest;" parent="308" vertex="1">
                    <mxGeometry y="73" width="200" height="37" as="geometry"/>
                </mxCell>
                <mxCell id="357" style="shape=partialRectangle;html=1;whiteSpace=wrap;connectable=0;fillColor=none;top=0;left=0;bottom=0;right=0;overflow=hidden;pointerEvents=1;" parent="313" vertex="1">
                    <mxGeometry width="100" height="37" as="geometry">
                        <mxRectangle width="100" height="37" as="alternateBounds"/>
                    </mxGeometry>
                </mxCell>
                <mxCell id="351" style="shape=partialRectangle;html=1;whiteSpace=wrap;connectable=0;fillColor=none;top=0;left=0;bottom=0;right=0;overflow=hidden;pointerEvents=1;" parent="313" vertex="1">
                    <mxGeometry x="100" width="100" height="37" as="geometry">
                        <mxRectangle width="100" height="37" as="alternateBounds"/>
                    </mxGeometry>
                </mxCell>
                <mxCell id="321" value="Book" style="shape=table;startSize=30;container=1;collapsible=0;childLayout=tableLayout;fontStyle=1;align=center;pointerEvents=1;" parent="1" vertex="1">
                    <mxGeometry x="1990" y="115" width="410" height="110" as="geometry"/>
                </mxCell>
                <mxCell id="322" value="" style="shape=partialRectangle;html=1;whiteSpace=wrap;collapsible=0;dropTarget=0;pointerEvents=0;fillColor=none;top=0;left=0;bottom=0;right=0;points=[[0,0.5],[1,0.5]];portConstraint=eastwest;" parent="321" vertex="1">
                    <mxGeometry y="30" width="410" height="40" as="geometry"/>
                </mxCell>
                <mxCell id="323" value="&lt;u&gt;Book_ID&lt;/u&gt;" style="shape=partialRectangle;html=1;whiteSpace=wrap;connectable=0;fillColor=none;top=0;left=0;bottom=0;right=0;overflow=hidden;pointerEvents=1;" parent="322" vertex="1">
                    <mxGeometry width="60" height="40" as="geometry">
                        <mxRectangle width="60" height="40" as="alternateBounds"/>
                    </mxGeometry>
                </mxCell>
                <mxCell id="324" value="Name" style="shape=partialRectangle;html=1;whiteSpace=wrap;connectable=0;fillColor=none;top=0;left=0;bottom=0;right=0;overflow=hidden;pointerEvents=1;" parent="322" vertex="1">
                    <mxGeometry x="60" width="60" height="40" as="geometry">
                        <mxRectangle width="60" height="40" as="alternateBounds"/>
                    </mxGeometry>
                </mxCell>
                <mxCell id="325" value="&lt;span&gt;Publisher&lt;/span&gt;" style="shape=partialRectangle;html=1;whiteSpace=wrap;connectable=0;fillColor=none;top=0;left=0;bottom=0;right=0;overflow=hidden;pointerEvents=1;" parent="322" vertex="1">
                    <mxGeometry x="120" width="69" height="40" as="geometry">
                        <mxRectangle width="69" height="40" as="alternateBounds"/>
                    </mxGeometry>
                </mxCell>
                <mxCell id="459" value="ISBN" style="shape=partialRectangle;html=1;whiteSpace=wrap;connectable=0;fillColor=none;top=0;left=0;bottom=0;right=0;overflow=hidden;pointerEvents=1;" parent="322" vertex="1">
                    <mxGeometry x="189" width="60" height="40" as="geometry">
                        <mxRectangle width="60" height="40" as="alternateBounds"/>
                    </mxGeometry>
                </mxCell>
                <mxCell id="461" value="Category" style="shape=partialRectangle;html=1;whiteSpace=wrap;connectable=0;fillColor=none;top=0;left=0;bottom=0;right=0;overflow=hidden;pointerEvents=1;" parent="322" vertex="1">
                    <mxGeometry x="249" width="71" height="40" as="geometry">
                        <mxRectangle width="71" height="40" as="alternateBounds"/>
                    </mxGeometry>
                </mxCell>
                <mxCell id="484" value="Rent_condition" style="shape=partialRectangle;html=1;whiteSpace=wrap;connectable=0;fillColor=none;top=0;left=0;bottom=0;right=0;overflow=hidden;pointerEvents=1;" parent="322" vertex="1">
                    <mxGeometry x="320" width="90" height="40" as="geometry">
                        <mxRectangle width="90" height="40" as="alternateBounds"/>
                    </mxGeometry>
                </mxCell>
                <mxCell id="326" value="" style="shape=partialRectangle;html=1;whiteSpace=wrap;collapsible=0;dropTarget=0;pointerEvents=0;fillColor=none;top=0;left=0;bottom=0;right=0;points=[[0,0.5],[1,0.5]];portConstraint=eastwest;" parent="321" vertex="1">
                    <mxGeometry y="70" width="410" height="40" as="geometry"/>
                </mxCell>
                <mxCell id="327" value="" style="shape=partialRectangle;html=1;whiteSpace=wrap;connectable=0;fillColor=none;top=0;left=0;bottom=0;right=0;overflow=hidden;pointerEvents=1;" parent="326" vertex="1">
                    <mxGeometry width="60" height="40" as="geometry">
                        <mxRectangle width="60" height="40" as="alternateBounds"/>
                    </mxGeometry>
                </mxCell>
                <mxCell id="328" value="" style="shape=partialRectangle;html=1;whiteSpace=wrap;connectable=0;fillColor=none;top=0;left=0;bottom=0;right=0;overflow=hidden;pointerEvents=1;" parent="326" vertex="1">
                    <mxGeometry x="60" width="60" height="40" as="geometry">
                        <mxRectangle width="60" height="40" as="alternateBounds"/>
                    </mxGeometry>
                </mxCell>
                <mxCell id="329" value="" style="shape=partialRectangle;html=1;whiteSpace=wrap;connectable=0;fillColor=none;top=0;left=0;bottom=0;right=0;overflow=hidden;pointerEvents=1;" parent="326" vertex="1">
                    <mxGeometry x="120" width="69" height="40" as="geometry">
                        <mxRectangle width="69" height="40" as="alternateBounds"/>
                    </mxGeometry>
                </mxCell>
                <mxCell id="460" style="shape=partialRectangle;html=1;whiteSpace=wrap;connectable=0;fillColor=none;top=0;left=0;bottom=0;right=0;overflow=hidden;pointerEvents=1;" parent="326" vertex="1">
                    <mxGeometry x="189" width="60" height="40" as="geometry">
                        <mxRectangle width="60" height="40" as="alternateBounds"/>
                    </mxGeometry>
                </mxCell>
                <mxCell id="462" style="shape=partialRectangle;html=1;whiteSpace=wrap;connectable=0;fillColor=none;top=0;left=0;bottom=0;right=0;overflow=hidden;pointerEvents=1;" parent="326" vertex="1">
                    <mxGeometry x="249" width="71" height="40" as="geometry">
                        <mxRectangle width="71" height="40" as="alternateBounds"/>
                    </mxGeometry>
                </mxCell>
                <mxCell id="485" style="shape=partialRectangle;html=1;whiteSpace=wrap;connectable=0;fillColor=none;top=0;left=0;bottom=0;right=0;overflow=hidden;pointerEvents=1;" parent="326" vertex="1">
                    <mxGeometry x="320" width="90" height="40" as="geometry">
                        <mxRectangle width="90" height="40" as="alternateBounds"/>
                    </mxGeometry>
                </mxCell>
                <mxCell id="366" value="Start Prensentation" style="shape=step;perimeter=stepPerimeter;whiteSpace=wrap;html=1;fixedSize=1;fontStyle=1" parent="1" vertex="1">
                    <mxGeometry x="1210" y="2010" width="160" height="80" as="geometry"/>
                </mxCell>
                <mxCell id="367" value="Want_Book" style="shape=table;startSize=30;container=1;collapsible=0;childLayout=tableLayout;fontStyle=1;align=center;pointerEvents=1;" parent="1" vertex="1">
                    <mxGeometry x="1530" y="425" width="200" height="110" as="geometry"/>
                </mxCell>
                <mxCell id="368" value="" style="shape=partialRectangle;html=1;whiteSpace=wrap;collapsible=0;dropTarget=0;pointerEvents=0;fillColor=none;top=0;left=0;bottom=0;right=0;points=[[0,0.5],[1,0.5]];portConstraint=eastwest;" parent="367" vertex="1">
                    <mxGeometry y="30" width="200" height="40" as="geometry"/>
                </mxCell>
                <mxCell id="369" value="&lt;u&gt;Account_ID&lt;/u&gt;" style="shape=partialRectangle;html=1;whiteSpace=wrap;connectable=0;fillColor=none;top=0;left=0;bottom=0;right=0;overflow=hidden;pointerEvents=1;" parent="368" vertex="1">
                    <mxGeometry width="100" height="40" as="geometry">
                        <mxRectangle width="100" height="40" as="alternateBounds"/>
                    </mxGeometry>
                </mxCell>
                <mxCell id="370" value="Want_ISBN" style="shape=partialRectangle;html=1;whiteSpace=wrap;connectable=0;fillColor=none;top=0;left=0;bottom=0;right=0;overflow=hidden;pointerEvents=1;fontStyle=4" parent="368" vertex="1">
                    <mxGeometry x="100" width="100" height="40" as="geometry">
                        <mxRectangle width="100" height="40" as="alternateBounds"/>
                    </mxGeometry>
                </mxCell>
                <mxCell id="372" value="" style="shape=partialRectangle;html=1;whiteSpace=wrap;collapsible=0;dropTarget=0;pointerEvents=0;fillColor=none;top=0;left=0;bottom=0;right=0;points=[[0,0.5],[1,0.5]];portConstraint=eastwest;" parent="367" vertex="1">
                    <mxGeometry y="70" width="200" height="40" as="geometry"/>
                </mxCell>
                <mxCell id="373" value="" style="shape=partialRectangle;html=1;whiteSpace=wrap;connectable=0;fillColor=none;top=0;left=0;bottom=0;right=0;overflow=hidden;pointerEvents=1;" parent="372" vertex="1">
                    <mxGeometry width="100" height="40" as="geometry">
                        <mxRectangle width="100" height="40" as="alternateBounds"/>
                    </mxGeometry>
                </mxCell>
                <mxCell id="374" value="" style="shape=partialRectangle;html=1;whiteSpace=wrap;connectable=0;fillColor=none;top=0;left=0;bottom=0;right=0;overflow=hidden;pointerEvents=1;" parent="372" vertex="1">
                    <mxGeometry x="100" width="100" height="40" as="geometry">
                        <mxRectangle width="100" height="40" as="alternateBounds"/>
                    </mxGeometry>
                </mxCell>
                <mxCell id="381" value="Book_Status" style="shape=table;startSize=32;container=1;collapsible=0;childLayout=tableLayout;fontStyle=1;align=center;pointerEvents=1;" parent="1" vertex="1">
                    <mxGeometry x="2040" y="424" width="360" height="112" as="geometry"/>
                </mxCell>
                <mxCell id="382" value="" style="shape=partialRectangle;html=1;whiteSpace=wrap;collapsible=0;dropTarget=0;pointerEvents=0;fillColor=none;top=0;left=0;bottom=0;right=0;points=[[0,0.5],[1,0.5]];portConstraint=eastwest;" parent="381" vertex="1">
                    <mxGeometry y="32" width="360" height="40" as="geometry"/>
                </mxCell>
                <mxCell id="383" value="&lt;span&gt;&lt;u&gt;Book_ID&lt;/u&gt;&lt;/span&gt;" style="shape=partialRectangle;html=1;whiteSpace=wrap;connectable=0;fillColor=none;top=0;left=0;bottom=0;right=0;overflow=hidden;pointerEvents=1;" parent="382" vertex="1">
                    <mxGeometry width="72" height="40" as="geometry">
                        <mxRectangle width="72" height="40" as="alternateBounds"/>
                    </mxGeometry>
                </mxCell>
                <mxCell id="384" value="&lt;span&gt;Time_stamp&lt;/span&gt;" style="shape=partialRectangle;html=1;whiteSpace=wrap;connectable=0;fillColor=none;top=0;left=0;bottom=0;right=0;overflow=hidden;pointerEvents=1;" parent="382" vertex="1">
                    <mxGeometry x="72" width="72" height="40" as="geometry">
                        <mxRectangle width="72" height="40" as="alternateBounds"/>
                    </mxGeometry>
                </mxCell>
                <mxCell id="385" value="&lt;span&gt;Is_placed&lt;/span&gt;" style="shape=partialRectangle;html=1;whiteSpace=wrap;connectable=0;fillColor=none;top=0;left=0;bottom=0;right=0;overflow=hidden;pointerEvents=1;" parent="382" vertex="1">
                    <mxGeometry x="144" width="72" height="40" as="geometry">
                        <mxRectangle width="72" height="40" as="alternateBounds"/>
                    </mxGeometry>
                </mxCell>
                <mxCell id="486" value="&lt;span&gt;Is_available&lt;/span&gt;" style="shape=partialRectangle;html=1;whiteSpace=wrap;connectable=0;fillColor=none;top=0;left=0;bottom=0;right=0;overflow=hidden;pointerEvents=1;" parent="382" vertex="1">
                    <mxGeometry x="216" width="72" height="40" as="geometry">
                        <mxRectangle width="72" height="40" as="alternateBounds"/>
                    </mxGeometry>
                </mxCell>
                <mxCell id="488" value="&lt;span&gt;Is_rent&lt;/span&gt;" style="shape=partialRectangle;html=1;whiteSpace=wrap;connectable=0;fillColor=none;top=0;left=0;bottom=0;right=0;overflow=hidden;pointerEvents=1;" parent="382" vertex="1">
                    <mxGeometry x="288" width="72" height="40" as="geometry">
                        <mxRectangle width="72" height="40" as="alternateBounds"/>
                    </mxGeometry>
                </mxCell>
                <mxCell id="386" value="" style="shape=partialRectangle;html=1;whiteSpace=wrap;collapsible=0;dropTarget=0;pointerEvents=0;fillColor=none;top=0;left=0;bottom=0;right=0;points=[[0,0.5],[1,0.5]];portConstraint=eastwest;" parent="381" vertex="1">
                    <mxGeometry y="72" width="360" height="40" as="geometry"/>
                </mxCell>
                <mxCell id="387" value="" style="shape=partialRectangle;html=1;whiteSpace=wrap;connectable=0;fillColor=none;top=0;left=0;bottom=0;right=0;overflow=hidden;pointerEvents=1;" parent="386" vertex="1">
                    <mxGeometry width="72" height="40" as="geometry">
                        <mxRectangle width="72" height="40" as="alternateBounds"/>
                    </mxGeometry>
                </mxCell>
                <mxCell id="388" value="" style="shape=partialRectangle;html=1;whiteSpace=wrap;connectable=0;fillColor=none;top=0;left=0;bottom=0;right=0;overflow=hidden;pointerEvents=1;" parent="386" vertex="1">
                    <mxGeometry x="72" width="72" height="40" as="geometry">
                        <mxRectangle width="72" height="40" as="alternateBounds"/>
                    </mxGeometry>
                </mxCell>
                <mxCell id="389" value="" style="shape=partialRectangle;html=1;whiteSpace=wrap;connectable=0;fillColor=none;top=0;left=0;bottom=0;right=0;overflow=hidden;pointerEvents=1;" parent="386" vertex="1">
                    <mxGeometry x="144" width="72" height="40" as="geometry">
                        <mxRectangle width="72" height="40" as="alternateBounds"/>
                    </mxGeometry>
                </mxCell>
                <mxCell id="487" style="shape=partialRectangle;html=1;whiteSpace=wrap;connectable=0;fillColor=none;top=0;left=0;bottom=0;right=0;overflow=hidden;pointerEvents=1;" parent="386" vertex="1">
                    <mxGeometry x="216" width="72" height="40" as="geometry">
                        <mxRectangle width="72" height="40" as="alternateBounds"/>
                    </mxGeometry>
                </mxCell>
                <mxCell id="489" style="shape=partialRectangle;html=1;whiteSpace=wrap;connectable=0;fillColor=none;top=0;left=0;bottom=0;right=0;overflow=hidden;pointerEvents=1;" parent="386" vertex="1">
                    <mxGeometry x="288" width="72" height="40" as="geometry">
                        <mxRectangle width="72" height="40" as="alternateBounds"/>
                    </mxGeometry>
                </mxCell>
                <mxCell id="396" value="Noticification" style="shape=table;startSize=30;container=1;collapsible=0;childLayout=tableLayout;fontStyle=1;align=center;pointerEvents=1;" parent="1" vertex="1">
                    <mxGeometry x="2140" y="270" width="200" height="110" as="geometry"/>
                </mxCell>
                <mxCell id="397" value="" style="shape=partialRectangle;html=1;whiteSpace=wrap;collapsible=0;dropTarget=0;pointerEvents=0;fillColor=none;top=0;left=0;bottom=0;right=0;points=[[0,0.5],[1,0.5]];portConstraint=eastwest;" parent="396" vertex="1">
                    <mxGeometry y="30" width="200" height="40" as="geometry"/>
                </mxCell>
                <mxCell id="398" value="&lt;span&gt;&lt;u&gt;Account_ID&lt;/u&gt;&lt;/span&gt;" style="shape=partialRectangle;html=1;whiteSpace=wrap;connectable=0;fillColor=none;top=0;left=0;bottom=0;right=0;overflow=hidden;pointerEvents=1;" parent="397" vertex="1">
                    <mxGeometry width="100" height="40" as="geometry">
                        <mxRectangle width="100" height="40" as="alternateBounds"/>
                    </mxGeometry>
                </mxCell>
                <mxCell id="399" value="&lt;span&gt;Message&lt;/span&gt;" style="shape=partialRectangle;html=1;whiteSpace=wrap;connectable=0;fillColor=none;top=0;left=0;bottom=0;right=0;overflow=hidden;pointerEvents=1;" parent="397" vertex="1">
                    <mxGeometry x="100" width="100" height="40" as="geometry">
                        <mxRectangle width="100" height="40" as="alternateBounds"/>
                    </mxGeometry>
                </mxCell>
                <mxCell id="401" value="" style="shape=partialRectangle;html=1;whiteSpace=wrap;collapsible=0;dropTarget=0;pointerEvents=0;fillColor=none;top=0;left=0;bottom=0;right=0;points=[[0,0.5],[1,0.5]];portConstraint=eastwest;" parent="396" vertex="1">
                    <mxGeometry y="70" width="200" height="40" as="geometry"/>
                </mxCell>
                <mxCell id="402" value="" style="shape=partialRectangle;html=1;whiteSpace=wrap;connectable=0;fillColor=none;top=0;left=0;bottom=0;right=0;overflow=hidden;pointerEvents=1;" parent="401" vertex="1">
                    <mxGeometry width="100" height="40" as="geometry">
                        <mxRectangle width="100" height="40" as="alternateBounds"/>
                    </mxGeometry>
                </mxCell>
                <mxCell id="403" value="" style="shape=partialRectangle;html=1;whiteSpace=wrap;connectable=0;fillColor=none;top=0;left=0;bottom=0;right=0;overflow=hidden;pointerEvents=1;" parent="401" vertex="1">
                    <mxGeometry x="100" width="100" height="40" as="geometry">
                        <mxRectangle width="100" height="40" as="alternateBounds"/>
                    </mxGeometry>
                </mxCell>
                <mxCell id="410" value="2022.9.25" style="text;html=1;align=center;verticalAlign=middle;resizable=0;points=[];autosize=1;strokeColor=none;fillColor=none;fontStyle=1" parent="1" vertex="1">
                    <mxGeometry x="112.75" y="2101" width="63" height="18" as="geometry"/>
                </mxCell>
                <mxCell id="411" value="HAS" style="shape=table;startSize=30;container=1;collapsible=0;childLayout=tableLayout;fontStyle=1;align=center;pointerEvents=1;" parent="1" vertex="1">
                    <mxGeometry x="1610" y="270" width="200" height="110" as="geometry"/>
                </mxCell>
                <mxCell id="412" value="" style="shape=partialRectangle;html=1;whiteSpace=wrap;collapsible=0;dropTarget=0;pointerEvents=0;fillColor=none;top=0;left=0;bottom=0;right=0;points=[[0,0.5],[1,0.5]];portConstraint=eastwest;" parent="411" vertex="1">
                    <mxGeometry y="30" width="200" height="40" as="geometry"/>
                </mxCell>
                <mxCell id="413" value="&lt;span&gt;&lt;u&gt;Account_ID&lt;/u&gt;&lt;/span&gt;" style="shape=partialRectangle;html=1;whiteSpace=wrap;connectable=0;fillColor=none;top=0;left=0;bottom=0;right=0;overflow=hidden;pointerEvents=1;" parent="412" vertex="1">
                    <mxGeometry width="100" height="40" as="geometry">
                        <mxRectangle width="100" height="40" as="alternateBounds"/>
                    </mxGeometry>
                </mxCell>
                <mxCell id="414" value="&lt;u&gt;Want_ISBN&lt;/u&gt;" style="shape=partialRectangle;html=1;whiteSpace=wrap;connectable=0;fillColor=none;top=0;left=0;bottom=0;right=0;overflow=hidden;pointerEvents=1;" parent="412" vertex="1">
                    <mxGeometry x="100" width="100" height="40" as="geometry">
                        <mxRectangle width="100" height="40" as="alternateBounds"/>
                    </mxGeometry>
                </mxCell>
                <mxCell id="416" value="" style="shape=partialRectangle;html=1;whiteSpace=wrap;collapsible=0;dropTarget=0;pointerEvents=0;fillColor=none;top=0;left=0;bottom=0;right=0;points=[[0,0.5],[1,0.5]];portConstraint=eastwest;" parent="411" vertex="1">
                    <mxGeometry y="70" width="200" height="40" as="geometry"/>
                </mxCell>
                <mxCell id="417" value="" style="shape=partialRectangle;html=1;whiteSpace=wrap;connectable=0;fillColor=none;top=0;left=0;bottom=0;right=0;overflow=hidden;pointerEvents=1;" parent="416" vertex="1">
                    <mxGeometry width="100" height="40" as="geometry">
                        <mxRectangle width="100" height="40" as="alternateBounds"/>
                    </mxGeometry>
                </mxCell>
                <mxCell id="418" value="" style="shape=partialRectangle;html=1;whiteSpace=wrap;connectable=0;fillColor=none;top=0;left=0;bottom=0;right=0;overflow=hidden;pointerEvents=1;" parent="416" vertex="1">
                    <mxGeometry x="100" width="100" height="40" as="geometry">
                        <mxRectangle width="100" height="40" as="alternateBounds"/>
                    </mxGeometry>
                </mxCell>
                <mxCell id="426" value="HAS_RENT" style="shape=table;startSize=30;container=1;collapsible=0;childLayout=tableLayout;fontStyle=1;align=center;pointerEvents=1;" parent="1" vertex="1">
                    <mxGeometry x="1770" y="115" width="180" height="110" as="geometry"/>
                </mxCell>
                <mxCell id="427" value="" style="shape=partialRectangle;html=1;whiteSpace=wrap;collapsible=0;dropTarget=0;pointerEvents=0;fillColor=none;top=0;left=0;bottom=0;right=0;points=[[0,0.5],[1,0.5]];portConstraint=eastwest;" parent="426" vertex="1">
                    <mxGeometry y="30" width="180" height="40" as="geometry"/>
                </mxCell>
                <mxCell id="428" value="&lt;span&gt;&lt;u&gt;Account_ID&lt;/u&gt;&lt;/span&gt;" style="shape=partialRectangle;html=1;whiteSpace=wrap;connectable=0;fillColor=none;top=0;left=0;bottom=0;right=0;overflow=hidden;pointerEvents=1;" parent="427" vertex="1">
                    <mxGeometry width="90" height="40" as="geometry">
                        <mxRectangle width="90" height="40" as="alternateBounds"/>
                    </mxGeometry>
                </mxCell>
                <mxCell id="429" value="&lt;span&gt;&lt;u&gt;Book_ID&lt;/u&gt;&lt;/span&gt;" style="shape=partialRectangle;html=1;whiteSpace=wrap;connectable=0;fillColor=none;top=0;left=0;bottom=0;right=0;overflow=hidden;pointerEvents=1;" parent="427" vertex="1">
                    <mxGeometry x="90" width="90" height="40" as="geometry">
                        <mxRectangle width="90" height="40" as="alternateBounds"/>
                    </mxGeometry>
                </mxCell>
                <mxCell id="431" value="" style="shape=partialRectangle;html=1;whiteSpace=wrap;collapsible=0;dropTarget=0;pointerEvents=0;fillColor=none;top=0;left=0;bottom=0;right=0;points=[[0,0.5],[1,0.5]];portConstraint=eastwest;" parent="426" vertex="1">
                    <mxGeometry y="70" width="180" height="40" as="geometry"/>
                </mxCell>
                <mxCell id="432" value="" style="shape=partialRectangle;html=1;whiteSpace=wrap;connectable=0;fillColor=none;top=0;left=0;bottom=0;right=0;overflow=hidden;pointerEvents=1;" parent="431" vertex="1">
                    <mxGeometry width="90" height="40" as="geometry">
                        <mxRectangle width="90" height="40" as="alternateBounds"/>
                    </mxGeometry>
                </mxCell>
                <mxCell id="433" value="" style="shape=partialRectangle;html=1;whiteSpace=wrap;connectable=0;fillColor=none;top=0;left=0;bottom=0;right=0;overflow=hidden;pointerEvents=1;" parent="431" vertex="1">
                    <mxGeometry x="90" width="90" height="40" as="geometry">
                        <mxRectangle width="90" height="40" as="alternateBounds"/>
                    </mxGeometry>
                </mxCell>
                <mxCell id="437" value="UPDATES" style="shape=table;startSize=30;container=1;collapsible=0;childLayout=tableLayout;fontStyle=1;align=center;pointerEvents=1;" parent="1" vertex="1">
                    <mxGeometry x="1770" y="425" width="230" height="110" as="geometry"/>
                </mxCell>
                <mxCell id="438" value="" style="shape=partialRectangle;html=1;whiteSpace=wrap;collapsible=0;dropTarget=0;pointerEvents=0;fillColor=none;top=0;left=0;bottom=0;right=0;points=[[0,0.5],[1,0.5]];portConstraint=eastwest;" parent="437" vertex="1">
                    <mxGeometry y="30" width="230" height="40" as="geometry"/>
                </mxCell>
                <mxCell id="439" value="&lt;span&gt;&lt;u&gt;Book_ID&lt;/u&gt;&lt;/span&gt;" style="shape=partialRectangle;html=1;whiteSpace=wrap;connectable=0;fillColor=none;top=0;left=0;bottom=0;right=0;overflow=hidden;pointerEvents=1;" parent="438" vertex="1">
                    <mxGeometry width="77" height="40" as="geometry">
                        <mxRectangle width="77" height="40" as="alternateBounds"/>
                    </mxGeometry>
                </mxCell>
                <mxCell id="440" value="&lt;span&gt;&lt;u&gt;Account_ID&lt;/u&gt;&lt;/span&gt;" style="shape=partialRectangle;html=1;whiteSpace=wrap;connectable=0;fillColor=none;top=0;left=0;bottom=0;right=0;overflow=hidden;pointerEvents=1;" parent="438" vertex="1">
                    <mxGeometry x="77" width="76" height="40" as="geometry">
                        <mxRectangle width="76" height="40" as="alternateBounds"/>
                    </mxGeometry>
                </mxCell>
                <mxCell id="441" value="&lt;span&gt;Want_ISBN&lt;/span&gt;" style="shape=partialRectangle;html=1;whiteSpace=wrap;connectable=0;fillColor=none;top=0;left=0;bottom=0;right=0;overflow=hidden;pointerEvents=1;fontStyle=4" parent="438" vertex="1">
                    <mxGeometry x="153" width="77" height="40" as="geometry">
                        <mxRectangle width="77" height="40" as="alternateBounds"/>
                    </mxGeometry>
                </mxCell>
                <mxCell id="442" value="" style="shape=partialRectangle;html=1;whiteSpace=wrap;collapsible=0;dropTarget=0;pointerEvents=0;fillColor=none;top=0;left=0;bottom=0;right=0;points=[[0,0.5],[1,0.5]];portConstraint=eastwest;" parent="437" vertex="1">
                    <mxGeometry y="70" width="230" height="40" as="geometry"/>
                </mxCell>
                <mxCell id="443" value="" style="shape=partialRectangle;html=1;whiteSpace=wrap;connectable=0;fillColor=none;top=0;left=0;bottom=0;right=0;overflow=hidden;pointerEvents=1;" parent="442" vertex="1">
                    <mxGeometry width="77" height="40" as="geometry">
                        <mxRectangle width="77" height="40" as="alternateBounds"/>
                    </mxGeometry>
                </mxCell>
                <mxCell id="444" value="" style="shape=partialRectangle;html=1;whiteSpace=wrap;connectable=0;fillColor=none;top=0;left=0;bottom=0;right=0;overflow=hidden;pointerEvents=1;" parent="442" vertex="1">
                    <mxGeometry x="77" width="76" height="40" as="geometry">
                        <mxRectangle width="76" height="40" as="alternateBounds"/>
                    </mxGeometry>
                </mxCell>
                <mxCell id="445" value="" style="shape=partialRectangle;html=1;whiteSpace=wrap;connectable=0;fillColor=none;top=0;left=0;bottom=0;right=0;overflow=hidden;pointerEvents=1;" parent="442" vertex="1">
                    <mxGeometry x="153" width="77" height="40" as="geometry">
                        <mxRectangle width="77" height="40" as="alternateBounds"/>
                    </mxGeometry>
                </mxCell>
                <mxCell id="490" value="2022.10.4" style="text;html=1;align=center;verticalAlign=middle;resizable=0;points=[];autosize=1;strokeColor=none;fillColor=none;fontStyle=1" parent="1" vertex="1">
                    <mxGeometry x="286.5" y="2101" width="63" height="18" as="geometry"/>
                </mxCell>
                <mxCell id="491" value="2022.10.8" style="text;html=1;align=center;verticalAlign=middle;resizable=0;points=[];autosize=1;strokeColor=none;fillColor=none;fontStyle=1" parent="1" vertex="1">
                    <mxGeometry x="464" y="2101" width="63" height="18" as="geometry"/>
                </mxCell>
                <mxCell id="492" value="2022.10.29" style="text;html=1;align=center;verticalAlign=middle;resizable=0;points=[];autosize=1;strokeColor=none;fillColor=none;fontStyle=1" parent="1" vertex="1">
                    <mxGeometry x="645" y="2101" width="70" height="18" as="geometry"/>
                </mxCell>
                <mxCell id="493" value="2022.11.5" style="text;html=1;align=center;verticalAlign=middle;resizable=0;points=[];autosize=1;strokeColor=none;fillColor=none;fontStyle=1" parent="1" vertex="1">
                    <mxGeometry x="839" y="2101" width="63" height="18" as="geometry"/>
                </mxCell>
                <mxCell id="494" value="2022.11.12" style="text;html=1;align=center;verticalAlign=middle;resizable=0;points=[];autosize=1;strokeColor=none;fillColor=none;fontStyle=1" parent="1" vertex="1">
                    <mxGeometry x="1037" y="1971" width="69" height="18" as="geometry"/>
                </mxCell>
                <mxCell id="495" value="2022.11.19" style="text;html=1;align=center;verticalAlign=middle;resizable=0;points=[];autosize=1;strokeColor=none;fillColor=none;fontStyle=1" parent="1" vertex="1">
                    <mxGeometry x="1037" y="2101" width="69" height="18" as="geometry"/>
                </mxCell>
                <mxCell id="496" value="2022.11.17" style="text;html=1;align=center;verticalAlign=middle;resizable=0;points=[];autosize=1;strokeColor=none;fillColor=none;fontStyle=1" parent="1" vertex="1">
                    <mxGeometry x="1037" y="2241" width="69" height="18" as="geometry"/>
                </mxCell>
                <mxCell id="499" value="RECEIVE" style="shape=table;startSize=30;container=1;collapsible=0;childLayout=tableLayout;fontStyle=1;align=center;pointerEvents=1;" parent="1" vertex="1">
                    <mxGeometry x="1877" y="270" width="190" height="110" as="geometry"/>
                </mxCell>
                <mxCell id="500" value="" style="shape=partialRectangle;html=1;whiteSpace=wrap;collapsible=0;dropTarget=0;pointerEvents=0;fillColor=none;top=0;left=0;bottom=0;right=0;points=[[0,0.5],[1,0.5]];portConstraint=eastwest;" parent="499" vertex="1">
                    <mxGeometry y="30" width="190" height="40" as="geometry"/>
                </mxCell>
                <mxCell id="501" value="&lt;span&gt;&lt;u&gt;Account_ID&lt;/u&gt;&lt;/span&gt;" style="shape=partialRectangle;html=1;whiteSpace=wrap;connectable=0;fillColor=none;top=0;left=0;bottom=0;right=0;overflow=hidden;pointerEvents=1;" parent="500" vertex="1">
                    <mxGeometry width="95" height="40" as="geometry">
                        <mxRectangle width="95" height="40" as="alternateBounds"/>
                    </mxGeometry>
                </mxCell>
                <mxCell id="502" value="Message" style="shape=partialRectangle;html=1;whiteSpace=wrap;connectable=0;fillColor=none;top=0;left=0;bottom=0;right=0;overflow=hidden;pointerEvents=1;" parent="500" vertex="1">
                    <mxGeometry x="95" width="95" height="40" as="geometry">
                        <mxRectangle width="95" height="40" as="alternateBounds"/>
                    </mxGeometry>
                </mxCell>
                <mxCell id="503" value="" style="shape=partialRectangle;html=1;whiteSpace=wrap;collapsible=0;dropTarget=0;pointerEvents=0;fillColor=none;top=0;left=0;bottom=0;right=0;points=[[0,0.5],[1,0.5]];portConstraint=eastwest;" parent="499" vertex="1">
                    <mxGeometry y="70" width="190" height="40" as="geometry"/>
                </mxCell>
                <mxCell id="504" value="" style="shape=partialRectangle;html=1;whiteSpace=wrap;connectable=0;fillColor=none;top=0;left=0;bottom=0;right=0;overflow=hidden;pointerEvents=1;" parent="503" vertex="1">
                    <mxGeometry width="95" height="40" as="geometry">
                        <mxRectangle width="95" height="40" as="alternateBounds"/>
                    </mxGeometry>
                </mxCell>
                <mxCell id="505" value="" style="shape=partialRectangle;html=1;whiteSpace=wrap;connectable=0;fillColor=none;top=0;left=0;bottom=0;right=0;overflow=hidden;pointerEvents=1;" parent="503" vertex="1">
                    <mxGeometry x="95" width="95" height="40" as="geometry">
                        <mxRectangle width="95" height="40" as="alternateBounds"/>
                    </mxGeometry>
                </mxCell>
                <mxCell id="506" value="TBD" style="text;html=1;align=center;verticalAlign=middle;resizable=0;points=[];autosize=1;strokeColor=none;fillColor=none;fontStyle=1" parent="1" vertex="1">
                    <mxGeometry x="1273" y="2101" width="35" height="18" as="geometry"/>
                </mxCell>
                <mxCell id="508" style="edgeStyle=none;html=1;exitX=1;exitY=0;exitDx=0;exitDy=0;entryX=0;entryY=1;entryDx=0;entryDy=0;endArrow=none;endFill=0;" parent="1" source="507" target="75" edge="1">
                    <mxGeometry relative="1" as="geometry"/>
                </mxCell>
                <mxCell id="507" value="Want_date" style="ellipse;whiteSpace=wrap;html=1;align=center;fontStyle=1;fillColor=#f8cecc;strokeColor=#b85450;" parent="1" vertex="1">
                    <mxGeometry x="1475" y="-425" width="100" height="40" as="geometry"/>
                </mxCell>
                <mxCell id="510" style="edgeStyle=none;html=1;exitX=1;exitY=0;exitDx=0;exitDy=0;entryX=0;entryY=1;entryDx=0;entryDy=0;endArrow=none;endFill=0;" parent="1" source="509" target="17" edge="1">
                    <mxGeometry relative="1" as="geometry"/>
                </mxCell>
                <mxCell id="509" value="Reserve_Count" style="ellipse;whiteSpace=wrap;html=1;align=center;fontStyle=1" parent="1" vertex="1">
                    <mxGeometry x="1480" y="-810" width="100" height="40" as="geometry"/>
                </mxCell>
                <mxCell id="527" style="edgeStyle=orthogonalEdgeStyle;rounded=0;html=1;fontFamily=Tahoma;fontColor=none;" parent="1" source="511" target="517" edge="1">
                    <mxGeometry relative="1" as="geometry">
                        <Array as="points">
                            <mxPoint x="1910" y="1140"/>
                            <mxPoint x="1910" y="1140"/>
                        </Array>
                    </mxGeometry>
                </mxCell>
                <mxCell id="529" value="View Render" style="edgeLabel;html=1;align=center;verticalAlign=middle;resizable=0;points=[];fontFamily=Tahoma;fontColor=none;" parent="527" vertex="1" connectable="0">
                    <mxGeometry x="-0.0897" y="-2" relative="1" as="geometry">
                        <mxPoint x="2" y="-12" as="offset"/>
                    </mxGeometry>
                </mxCell>
                <mxCell id="528" style="edgeStyle=orthogonalEdgeStyle;rounded=0;html=1;fontFamily=Tahoma;fontColor=none;" parent="1" source="511" target="519" edge="1">
                    <mxGeometry relative="1" as="geometry">
                        <Array as="points">
                            <mxPoint x="1770" y="1250"/>
                            <mxPoint x="1900" y="1250"/>
                        </Array>
                    </mxGeometry>
                </mxCell>
                <mxCell id="531" value="Stage Change and Control" style="edgeLabel;html=1;align=center;verticalAlign=middle;resizable=0;points=[];fontFamily=Tahoma;fontColor=none;" parent="528" vertex="1" connectable="0">
                    <mxGeometry x="-0.1955" y="3" relative="1" as="geometry">
                        <mxPoint x="30" y="-7" as="offset"/>
                    </mxGeometry>
                </mxCell>
                <mxCell id="511" value="Controller" style="swimlane;fontStyle=0;childLayout=stackLayout;horizontal=1;startSize=26;fillColor=#6CCFF6;horizontalStack=0;resizeParent=1;resizeParentMax=0;resizeLast=0;collapsible=0;marginBottom=0;strokeColor=#00ADEF;strokeWidth=2;fontFamily=Tahoma;" parent="1" vertex="1">
                    <mxGeometry x="1700" y="1125" width="140" height="90" as="geometry"/>
                </mxCell>
                <mxCell id="512" value="Database Controller&#10;Model Controller&#10;LMS Controller&#10;Data Process" style="text;strokeColor=#00ADEF;fillColor=default;align=left;verticalAlign=top;spacingLeft=4;spacingRight=4;overflow=hidden;rotatable=0;points=[[0,0.5],[1,0.5]];portConstraint=eastwest;strokeWidth=2;fontFamily=Tahoma;" parent="511" vertex="1">
                    <mxGeometry y="26" width="140" height="64" as="geometry"/>
                </mxCell>
                <mxCell id="515" value="Classname" style="swimlane;fontStyle=0;childLayout=stackLayout;horizontal=1;startSize=26;fillColor=#6CCFF6;horizontalStack=0;resizeParent=1;resizeParentMax=0;resizeLast=0;collapsible=0;marginBottom=0;strokeColor=#00ADEF;strokeWidth=2;fontFamily=Tahoma;" parent="1" vertex="1">
                    <mxGeometry x="1840" y="894" width="140" height="52" as="geometry"/>
                </mxCell>
                <mxCell id="516" value="+ field: type" style="text;strokeColor=#00ADEF;fillColor=default;align=left;verticalAlign=top;spacingLeft=4;spacingRight=4;overflow=hidden;rotatable=0;points=[[0,0.5],[1,0.5]];portConstraint=eastwest;strokeWidth=2;fontFamily=Tahoma;" parent="515" vertex="1">
                    <mxGeometry y="26" width="140" height="26" as="geometry"/>
                </mxCell>
                <mxCell id="525" style="edgeStyle=orthogonalEdgeStyle;rounded=0;html=1;fontFamily=Tahoma;fontColor=none;" parent="1" source="517" target="520" edge="1">
                    <mxGeometry relative="1" as="geometry"/>
                </mxCell>
                <mxCell id="533" value="State Query" style="edgeLabel;html=1;align=center;verticalAlign=middle;resizable=0;points=[];fontFamily=Tahoma;fontColor=none;" parent="525" vertex="1" connectable="0">
                    <mxGeometry x="-0.084" relative="1" as="geometry">
                        <mxPoint x="35" y="-19" as="offset"/>
                    </mxGeometry>
                </mxCell>
                <mxCell id="526" style="edgeStyle=orthogonalEdgeStyle;rounded=0;html=1;fontFamily=Tahoma;fontColor=none;" parent="1" source="517" target="512" edge="1">
                    <mxGeometry relative="1" as="geometry">
                        <Array as="points">
                            <mxPoint x="1870" y="1151"/>
                            <mxPoint x="1870" y="1151"/>
                        </Array>
                    </mxGeometry>
                </mxCell>
                <mxCell id="530" value="User Event" style="edgeLabel;html=1;align=center;verticalAlign=middle;resizable=0;points=[];fontFamily=Tahoma;fontColor=none;" parent="526" vertex="1" connectable="0">
                    <mxGeometry x="0.1768" y="3" relative="1" as="geometry">
                        <mxPoint x="6" y="6" as="offset"/>
                    </mxGeometry>
                </mxCell>
                <mxCell id="517" value="View" style="swimlane;fontStyle=0;childLayout=stackLayout;horizontal=1;startSize=26;fillColor=#6CCFF6;horizontalStack=0;resizeParent=1;resizeParentMax=0;resizeLast=0;collapsible=0;marginBottom=0;strokeColor=#00ADEF;strokeWidth=2;fontFamily=Tahoma;" parent="1" vertex="1">
                    <mxGeometry x="1935" y="1125" width="140" height="52" as="geometry"/>
                </mxCell>
                <mxCell id="518" value="LMS MainView" style="text;strokeColor=#00ADEF;fillColor=default;align=left;verticalAlign=top;spacingLeft=4;spacingRight=4;overflow=hidden;rotatable=0;points=[[0,0.5],[1,0.5]];portConstraint=eastwest;strokeWidth=2;fontFamily=Tahoma;" parent="517" vertex="1">
                    <mxGeometry y="26" width="140" height="26" as="geometry"/>
                </mxCell>
                <mxCell id="523" style="edgeStyle=orthogonalEdgeStyle;rounded=0;html=1;fontFamily=Tahoma;fontColor=none;" parent="1" source="519" target="518" edge="1">
                    <mxGeometry relative="1" as="geometry">
                        <Array as="points">
                            <mxPoint x="1960" y="1210"/>
                            <mxPoint x="1960" y="1210"/>
                        </Array>
                    </mxGeometry>
                </mxCell>
                <mxCell id="532" value="Change Notification" style="edgeLabel;html=1;align=center;verticalAlign=middle;resizable=0;points=[];fontFamily=Tahoma;fontColor=none;" parent="523" vertex="1" connectable="0">
                    <mxGeometry x="0.0286" relative="1" as="geometry">
                        <mxPoint x="-20" y="-12" as="offset"/>
                    </mxGeometry>
                </mxCell>
                <mxCell id="537" style="rounded=0;html=1;entryX=1;entryY=0.15;entryDx=0;entryDy=0;entryPerimeter=0;fontFamily=Tahoma;fontColor=none;exitX=-0.014;exitY=0.286;exitDx=0;exitDy=0;exitPerimeter=0;" parent="1" source="520" target="521" edge="1">
                    <mxGeometry relative="1" as="geometry"/>
                </mxCell>
                <mxCell id="539" value="push" style="edgeLabel;html=1;align=center;verticalAlign=middle;resizable=0;points=[];fontFamily=Tahoma;fontColor=none;" parent="537" vertex="1" connectable="0">
                    <mxGeometry x="-0.1287" y="1" relative="1" as="geometry">
                        <mxPoint x="-3" y="-14" as="offset"/>
                    </mxGeometry>
                </mxCell>
                <mxCell id="519" value="Model" style="swimlane;fontStyle=0;childLayout=stackLayout;horizontal=1;startSize=26;fillColor=#6CCFF6;horizontalStack=0;resizeParent=1;resizeParentMax=0;resizeLast=0;collapsible=0;marginBottom=0;strokeColor=#00ADEF;strokeWidth=2;fontFamily=Tahoma;" parent="1" vertex="1">
                    <mxGeometry x="1830" y="1270" width="140" height="120" as="geometry"/>
                </mxCell>
                <mxCell id="520" value="SQLModel Interface&#10;Book&#10;User&#10;RentBook&#10;WantBook&#10;PlacedBook" style="text;strokeColor=#00ADEF;fillColor=default;align=left;verticalAlign=top;spacingLeft=4;spacingRight=4;overflow=hidden;rotatable=0;points=[[0,0.5],[1,0.5]];portConstraint=eastwest;strokeWidth=2;fontFamily=Tahoma;" parent="519" vertex="1">
                    <mxGeometry y="26" width="140" height="94" as="geometry"/>
                </mxCell>
                <mxCell id="536" style="rounded=0;html=1;fontFamily=Tahoma;fontColor=none;exitX=1;exitY=0.85;exitDx=0;exitDy=0;exitPerimeter=0;entryX=0;entryY=0.745;entryDx=0;entryDy=0;entryPerimeter=0;" parent="1" source="521" target="520" edge="1">
                    <mxGeometry relative="1" as="geometry"/>
                </mxCell>
                <mxCell id="540" value="pull" style="edgeLabel;html=1;align=center;verticalAlign=middle;resizable=0;points=[];fontFamily=Tahoma;fontColor=none;" parent="536" vertex="1" connectable="0">
                    <mxGeometry x="-0.1192" y="2" relative="1" as="geometry">
                        <mxPoint x="6" y="11" as="offset"/>
                    </mxGeometry>
                </mxCell>
                <mxCell id="541" style="edgeStyle=none;rounded=0;html=1;fontFamily=Tahoma;fontColor=none;entryX=0.215;entryY=1.004;entryDx=0;entryDy=0;entryPerimeter=0;" parent="1" source="521" target="512" edge="1">
                    <mxGeometry relative="1" as="geometry"/>
                </mxCell>
                <mxCell id="542" value="get query result" style="edgeLabel;html=1;align=center;verticalAlign=middle;resizable=0;points=[];fontFamily=Tahoma;fontColor=none;" parent="541" vertex="1" connectable="0">
                    <mxGeometry x="0.1422" y="1" relative="1" as="geometry">
                        <mxPoint x="1" y="15" as="offset"/>
                    </mxGeometry>
                </mxCell>
                <mxCell id="521" value="" style="strokeWidth=2;html=1;shape=mxgraph.flowchart.database;whiteSpace=wrap;fontFamily=Tahoma;fillColor=default;fontColor=none;noLabel=1;strokeColor=#00ADEF;" parent="1" vertex="1">
                    <mxGeometry x="1700" y="1315" width="60" height="60" as="geometry"/>
                </mxCell>
                <mxCell id="543" style="edgeStyle=none;html=1;exitX=0;exitY=0.25;exitDx=0;exitDy=0;entryX=1;entryY=1;entryDx=0;entryDy=0;endArrow=none;endFill=0;fontStyle=1" edge="1" parent="1" source="544" target="559">
                    <mxGeometry relative="1" as="geometry"/>
                </mxCell>
                <mxCell id="617" style="edgeStyle=none;html=1;entryX=1;entryY=0;entryDx=0;entryDy=0;endArrow=none;endFill=0;exitX=0;exitY=0.75;exitDx=0;exitDy=0;" edge="1" parent="1" source="544" target="616">
                    <mxGeometry relative="1" as="geometry"/>
                </mxCell>
                <mxCell id="618" style="edgeStyle=none;html=1;entryX=1;entryY=0.5;entryDx=0;entryDy=0;endArrow=none;endFill=0;" edge="1" parent="1" source="544" target="615">
                    <mxGeometry relative="1" as="geometry"/>
                </mxCell>
                <mxCell id="544" value="Book" style="whiteSpace=wrap;html=1;align=center;fontStyle=1;strokeColor=#00ADEF;strokeWidth=2;fillColor=#6CCFF6;" vertex="1" parent="1">
                    <mxGeometry x="3052.5" y="-1217" width="100" height="40" as="geometry"/>
                </mxCell>
                <mxCell id="545" style="edgeStyle=none;html=1;exitX=0;exitY=0.25;exitDx=0;exitDy=0;entryX=1;entryY=0.5;entryDx=0;entryDy=0;endArrow=none;endFill=0;fontStyle=1;" edge="1" parent="1" source="548" target="550">
                    <mxGeometry relative="1" as="geometry"/>
                </mxCell>
                <mxCell id="548" value="User_Account" style="whiteSpace=wrap;html=1;align=center;fontStyle=1;fillColor=#6CCFF6;strokeColor=#00ADEF;strokeWidth=2;" vertex="1" parent="1">
                    <mxGeometry x="3054" y="-860" width="100" height="40" as="geometry"/>
                </mxCell>
                <mxCell id="550" value="Account_status" style="ellipse;whiteSpace=wrap;html=1;align=center;fontStyle=1;strokeColor=#00ADEF;strokeWidth=2;" vertex="1" parent="1">
                    <mxGeometry x="2929" y="-870" width="100" height="40" as="geometry"/>
                </mxCell>
                <mxCell id="554" style="edgeStyle=none;html=1;exitX=0.5;exitY=1;exitDx=0;exitDy=0;entryX=0.5;entryY=0;entryDx=0;entryDy=0;endArrow=none;endFill=0;fontStyle=1" edge="1" parent="1" source="578" target="556">
                    <mxGeometry relative="1" as="geometry"/>
                </mxCell>
                <mxCell id="555" value="(1,1)" style="edgeLabel;html=1;align=center;verticalAlign=middle;resizable=0;points=[];fontStyle=1" vertex="1" connectable="0" parent="554">
                    <mxGeometry x="-0.14" y="-1" relative="1" as="geometry">
                        <mxPoint x="-16" as="offset"/>
                    </mxGeometry>
                </mxCell>
                <mxCell id="556" value="Want_Book" style="whiteSpace=wrap;html=1;align=center;fontStyle=1;fillColor=#6CCFF6;strokeColor=#00ADEF;strokeWidth=2;" vertex="1" parent="1">
                    <mxGeometry x="3054" y="-649.67" width="100" height="40" as="geometry"/>
                </mxCell>
                <mxCell id="559" value="Name" style="ellipse;whiteSpace=wrap;html=1;fontStyle=1;strokeColor=#00ADEF;strokeWidth=2;" vertex="1" parent="1">
                    <mxGeometry x="2943" y="-1264" width="90" height="40" as="geometry"/>
                </mxCell>
                <mxCell id="561" style="edgeStyle=none;html=1;exitX=0;exitY=0.5;exitDx=0;exitDy=0;endArrow=none;endFill=0;entryX=1;entryY=0.5;entryDx=0;entryDy=0;fontStyle=1" edge="1" parent="1" source="571" target="556">
                    <mxGeometry relative="1" as="geometry">
                        <mxPoint x="3104" y="-607.56" as="targetPoint"/>
                    </mxGeometry>
                </mxCell>
                <mxCell id="562" style="edgeStyle=none;html=1;exitX=0.5;exitY=0;exitDx=0;exitDy=0;entryX=0.5;entryY=1;entryDx=0;entryDy=0;endArrow=none;endFill=0;fontStyle=1" edge="1" parent="1" source="572" target="544">
                    <mxGeometry relative="1" as="geometry">
                        <mxPoint x="3589" y="-840" as="sourcePoint"/>
                    </mxGeometry>
                </mxCell>
                <mxCell id="563" value="(1,1)" style="edgeLabel;html=1;align=center;verticalAlign=middle;resizable=0;points=[];fontStyle=1" vertex="1" connectable="0" parent="562">
                    <mxGeometry x="-0.2582" y="2" relative="1" as="geometry">
                        <mxPoint x="-13" y="-9" as="offset"/>
                    </mxGeometry>
                </mxCell>
                <mxCell id="564" style="edgeStyle=none;html=1;exitX=0;exitY=0.5;exitDx=0;exitDy=0;endArrow=none;endFill=0;fontStyle=1" edge="1" parent="1" source="588">
                    <mxGeometry relative="1" as="geometry">
                        <mxPoint x="3155" y="-840" as="targetPoint"/>
                    </mxGeometry>
                </mxCell>
                <mxCell id="566" style="edgeStyle=none;html=1;exitX=0.5;exitY=1;exitDx=0;exitDy=0;endArrow=none;endFill=0;fontStyle=1" edge="1" parent="1" source="567" target="544">
                    <mxGeometry relative="1" as="geometry"/>
                </mxCell>
                <mxCell id="567" value="&lt;u&gt;Book_ID&lt;/u&gt;" style="ellipse;whiteSpace=wrap;html=1;align=center;fontStyle=1;strokeColor=#00ADEF;strokeWidth=2;" vertex="1" parent="1">
                    <mxGeometry x="3057.5" y="-1297" width="90" height="40" as="geometry"/>
                </mxCell>
                <mxCell id="569" style="edgeStyle=none;html=1;exitX=0;exitY=0.5;exitDx=0;exitDy=0;entryX=1;entryY=0.5;entryDx=0;entryDy=0;endArrow=none;endFill=0;fontStyle=1" edge="1" parent="1" source="570" target="544">
                    <mxGeometry relative="1" as="geometry"/>
                </mxCell>
                <mxCell id="570" value="Category" style="ellipse;whiteSpace=wrap;html=1;align=center;fontStyle=1;strokeColor=#00ADEF;strokeWidth=2;" vertex="1" parent="1">
                    <mxGeometry x="3177" y="-1217" width="90" height="40" as="geometry"/>
                </mxCell>
                <mxCell id="571" value="Want_ISBN" style="ellipse;whiteSpace=wrap;html=1;align=center;fontStyle=5;strokeColor=#00ADEF;strokeWidth=2;" vertex="1" parent="1">
                    <mxGeometry x="3193" y="-649.67" width="100" height="40" as="geometry"/>
                </mxCell>
                <mxCell id="572" value="HAS_RENT" style="shape=rhombus;perimeter=rhombusPerimeter;whiteSpace=wrap;html=1;align=center;fontStyle=1;strokeColor=#00ADEF;strokeWidth=2;" vertex="1" parent="1">
                    <mxGeometry x="2967.75" y="-1049" width="120" height="60" as="geometry"/>
                </mxCell>
                <mxCell id="573" style="edgeStyle=none;html=1;exitX=0;exitY=1;exitDx=0;exitDy=0;entryX=1;entryY=0.25;entryDx=0;entryDy=0;endArrow=none;endFill=0;fontStyle=1" edge="1" parent="1" source="574" target="544">
                    <mxGeometry relative="1" as="geometry"/>
                </mxCell>
                <mxCell id="574" value="Author" style="ellipse;whiteSpace=wrap;html=1;align=center;fontStyle=1;strokeColor=#00ADEF;strokeWidth=2;" vertex="1" parent="1">
                    <mxGeometry x="3179" y="-1264" width="90" height="40" as="geometry"/>
                </mxCell>
                <mxCell id="576" style="edgeStyle=none;html=1;endArrow=none;endFill=0;entryX=0.5;entryY=0;entryDx=0;entryDy=0;exitX=0.5;exitY=1;exitDx=0;exitDy=0;fontStyle=1" edge="1" parent="1" source="572" target="548">
                    <mxGeometry relative="1" as="geometry">
                        <mxPoint x="3101.5" y="-815" as="targetPoint"/>
                    </mxGeometry>
                </mxCell>
                <mxCell id="577" value="(0,M)" style="edgeLabel;html=1;align=center;verticalAlign=middle;resizable=0;points=[];fontStyle=1" vertex="1" connectable="0" parent="576">
                    <mxGeometry x="0.0171" y="-3" relative="1" as="geometry">
                        <mxPoint x="-17" y="2" as="offset"/>
                    </mxGeometry>
                </mxCell>
                <mxCell id="578" value="HAS" style="shape=rhombus;perimeter=rhombusPerimeter;whiteSpace=wrap;html=1;align=center;fontStyle=1;strokeColor=#00ADEF;strokeWidth=2;" vertex="1" parent="1">
                    <mxGeometry x="3044" y="-765" width="120" height="60" as="geometry"/>
                </mxCell>
                <mxCell id="581" style="edgeStyle=none;html=1;exitX=0;exitY=0;exitDx=0;exitDy=0;entryX=1;entryY=0.75;entryDx=0;entryDy=0;endArrow=none;endFill=0;fontStyle=1" edge="1" parent="1" source="582" target="544">
                    <mxGeometry relative="1" as="geometry"/>
                </mxCell>
                <mxCell id="582" value="ISBN" style="ellipse;whiteSpace=wrap;html=1;align=center;fontStyle=1;strokeColor=#00ADEF;strokeWidth=2;" vertex="1" parent="1">
                    <mxGeometry x="3179" y="-1167" width="90" height="40" as="geometry"/>
                </mxCell>
                <mxCell id="583" style="edgeStyle=none;html=1;exitX=0.5;exitY=0;exitDx=0;exitDy=0;entryX=0.5;entryY=1;entryDx=0;entryDy=0;endArrow=none;endFill=0;fontStyle=1" edge="1" parent="1" source="578" target="548">
                    <mxGeometry relative="1" as="geometry"/>
                </mxCell>
                <mxCell id="584" value="(0,8)" style="edgeLabel;html=1;align=center;verticalAlign=middle;resizable=0;points=[];fontStyle=1" vertex="1" connectable="0" parent="583">
                    <mxGeometry relative="1" as="geometry">
                        <mxPoint x="-17" as="offset"/>
                    </mxGeometry>
                </mxCell>
                <mxCell id="588" value="Account_ID" style="ellipse;whiteSpace=wrap;html=1;align=center;fontStyle=5;strokeColor=#00ADEF;strokeWidth=2;" vertex="1" parent="1">
                    <mxGeometry x="3179" y="-860" width="100" height="40" as="geometry"/>
                </mxCell>
                <mxCell id="599" style="edgeStyle=none;html=1;exitX=1;exitY=0.5;exitDx=0;exitDy=0;entryX=0;entryY=0.5;entryDx=0;entryDy=0;endArrow=none;endFill=0;fontStyle=1" edge="1" parent="1" source="600" target="556">
                    <mxGeometry relative="1" as="geometry"/>
                </mxCell>
                <mxCell id="600" value="Account_ID" style="ellipse;whiteSpace=wrap;html=1;align=center;fontStyle=5;strokeColor=#00ADEF;strokeWidth=2;" vertex="1" parent="1">
                    <mxGeometry x="2929" y="-649.67" width="100" height="40" as="geometry"/>
                </mxCell>
                <mxCell id="601" style="edgeStyle=none;html=1;exitX=0.5;exitY=0;exitDx=0;exitDy=0;entryX=0.5;entryY=1;entryDx=0;entryDy=0;endArrow=none;endFill=0;" edge="1" parent="1" source="602" target="556">
                    <mxGeometry relative="1" as="geometry"/>
                </mxCell>
                <mxCell id="602" value="Want_time" style="ellipse;whiteSpace=wrap;html=1;align=center;fontStyle=1;strokeColor=#00ADEF;strokeWidth=2;" vertex="1" parent="1">
                    <mxGeometry x="3054" y="-584.4499999999999" width="100" height="40" as="geometry"/>
                </mxCell>
                <mxCell id="603" style="edgeStyle=none;html=1;entryX=0;entryY=0.75;entryDx=0;entryDy=0;endArrow=none;endFill=0;exitX=1;exitY=0.5;exitDx=0;exitDy=0;" edge="1" parent="1" source="607" target="548">
                    <mxGeometry relative="1" as="geometry">
                        <mxPoint x="3019.355339059327" y="-794.1421356237308" as="sourcePoint"/>
                    </mxGeometry>
                </mxCell>
                <mxCell id="609" style="edgeStyle=none;html=1;exitX=0.5;exitY=1;exitDx=0;exitDy=0;entryX=0.5;entryY=0;entryDx=0;entryDy=0;endArrow=none;endFill=0;" edge="1" parent="1" source="605" target="548">
                    <mxGeometry relative="1" as="geometry"/>
                </mxCell>
                <mxCell id="611" value="&lt;span style=&quot;color: rgba(0 , 0 , 0 , 0) ; font-family: monospace ; font-size: 0px&quot;&gt;%3CmxGraphModel%3E%3Croot%3E%3CmxCell%20id%3D%220%22%2F%3E%3CmxCell%20id%3D%221%22%20parent%3D%220%22%2F%3E%3CmxCell%20id%3D%222%22%20value%3D%22(0%2CM)%22%20style%3D%22edgeLabel%3Bhtml%3D1%3Balign%3Dcenter%3BverticalAlign%3Dmiddle%3Bresizable%3D0%3Bpoints%3D%5B%5D%3BfontStyle%3D1%22%20vertex%3D%221%22%20connectable%3D%220%22%20parent%3D%221%22%3E%3CmxGeometry%20x%3D%223265.831721327194%22%20y%3D%22-881.2949602120907%22%20as%3D%22geometry%22%2F%3E%3C%2FmxCell%3E%3C%2Froot%3E%3C%2FmxGraphModel%3E&lt;/span&gt;" style="edgeLabel;html=1;align=center;verticalAlign=middle;resizable=0;points=[];" vertex="1" connectable="0" parent="609">
                    <mxGeometry x="-0.2278" y="-1" relative="1" as="geometry">
                        <mxPoint as="offset"/>
                    </mxGeometry>
                </mxCell>
                <mxCell id="612" value="&lt;span style=&quot;font-weight: 700&quot;&gt;(0,M)&lt;/span&gt;" style="edgeLabel;html=1;align=center;verticalAlign=middle;resizable=0;points=[];" vertex="1" connectable="0" parent="609">
                    <mxGeometry x="-0.089" y="4" relative="1" as="geometry">
                        <mxPoint x="11" y="7" as="offset"/>
                    </mxGeometry>
                </mxCell>
                <mxCell id="610" style="edgeStyle=none;html=1;entryX=0.5;entryY=1;entryDx=0;entryDy=0;endArrow=none;endFill=0;exitX=0.5;exitY=0;exitDx=0;exitDy=0;" edge="1" parent="1" source="605" target="544">
                    <mxGeometry relative="1" as="geometry"/>
                </mxCell>
                <mxCell id="613" value="&lt;span style=&quot;color: rgba(0 , 0 , 0 , 0) ; font-family: monospace ; font-size: 0px&quot;&gt;%3CmxGraphModel%3E%3Croot%3E%3CmxCell%20id%3D%220%22%2F%3E%3CmxCell%20id%3D%221%22%20parent%3D%220%22%2F%3E%3CmxCell%20id%3D%222%22%20value%3D%22(1%2C1)%22%20style%3D%22edgeLabel%3Bhtml%3D1%3Balign%3Dcenter%3BverticalAlign%3Dmiddle%3Bresizable%3D0%3Bpoints%3D%5B%5D%3BfontStyle%3D1%22%20vertex%3D%221%22%20connectable%3D%220%22%20parent%3D%221%22%3E%3CmxGeometry%20x%3D%223608.702783046687%22%20y%3D%22-886.5108407657831%22%20as%3D%22geometry%22%2F%3E%3C%2FmxCell%3E%3C%2Froot%3E%3C%2FmxGraphModel%3E&lt;/span&gt;&lt;span style=&quot;color: rgba(0 , 0 , 0 , 0) ; font-family: monospace ; font-size: 0px&quot;&gt;%3CmxGraphModel%3E%3Croot%3E%3CmxCell%20id%3D%220%22%2F%3E%3CmxCell%20id%3D%221%22%20parent%3D%220%22%2F%3E%3CmxCell%20id%3D%222%22%20value%3D%22(1%2C1)%22%20style%3D%22edgeLabel%3Bhtml%3D1%3Balign%3Dcenter%3BverticalAlign%3Dmiddle%3Bresizable%3D0%3Bpoints%3D%5B%5D%3BfontStyle%3D1%22%20vertex%3D%221%22%20connectable%3D%220%22%20parent%3D%221%22%3E%3CmxGeometry%20x%3D%223608.702783046687%22%20y%3D%22-886.5108407657831%22%20as%3D%22geometry%22%2F%3E%3C%2FmxCell%3E%3C%2Froot%3E%3C%2FmxGraphModel%3E&lt;/span&gt;" style="edgeLabel;html=1;align=center;verticalAlign=middle;resizable=0;points=[];" vertex="1" connectable="0" parent="610">
                    <mxGeometry x="-0.1221" y="5" relative="1" as="geometry">
                        <mxPoint as="offset"/>
                    </mxGeometry>
                </mxCell>
                <mxCell id="614" value="&lt;span style=&quot;font-weight: 700&quot;&gt;(1,1)&lt;/span&gt;" style="edgeLabel;html=1;align=center;verticalAlign=middle;resizable=0;points=[];" vertex="1" connectable="0" parent="610">
                    <mxGeometry x="-0.1474" y="-3" relative="1" as="geometry">
                        <mxPoint x="13" y="-1" as="offset"/>
                    </mxGeometry>
                </mxCell>
                <mxCell id="605" value="HAS_PLACED" style="shape=rhombus;perimeter=rhombusPerimeter;whiteSpace=wrap;html=1;align=center;fontStyle=1;strokeColor=#00ADEF;strokeWidth=2;" vertex="1" parent="1">
                    <mxGeometry x="3120.25" y="-1049" width="120" height="60" as="geometry"/>
                </mxCell>
                <mxCell id="607" value="Noticification" style="ellipse;whiteSpace=wrap;html=1;align=center;fontStyle=1;strokeColor=#00ADEF;strokeWidth=2;" vertex="1" parent="1">
                    <mxGeometry x="2929" y="-818" width="100" height="40" as="geometry"/>
                </mxCell>
                <mxCell id="615" value="bookRentNum" style="ellipse;whiteSpace=wrap;html=1;align=center;fontStyle=1;strokeColor=#00ADEF;strokeWidth=2;" vertex="1" parent="1">
                    <mxGeometry x="2939" y="-1217" width="90" height="40" as="geometry"/>
                </mxCell>
                <mxCell id="616" value="BookWantNum" style="ellipse;whiteSpace=wrap;html=1;align=center;fontStyle=1;strokeColor=#00ADEF;strokeWidth=2;" vertex="1" parent="1">
                    <mxGeometry x="2939" y="-1167" width="90" height="40" as="geometry"/>
                </mxCell>
                <mxCell id="625" style="edgeStyle=none;html=1;entryX=1;entryY=1;entryDx=0;entryDy=0;endArrow=none;endFill=0;" edge="1" parent="1" source="622" target="605">
                    <mxGeometry relative="1" as="geometry"/>
                </mxCell>
                <mxCell id="622" value="Want_time" style="ellipse;whiteSpace=wrap;html=1;align=center;fontStyle=1;strokeColor=#00ADEF;strokeWidth=2;" vertex="1" parent="1">
                    <mxGeometry x="3174" y="-969" width="100" height="40" as="geometry"/>
                </mxCell>
                <mxCell id="624" style="edgeStyle=none;html=1;entryX=0;entryY=1;entryDx=0;entryDy=0;endArrow=none;endFill=0;" edge="1" parent="1" source="623" target="572">
                    <mxGeometry relative="1" as="geometry"/>
                </mxCell>
                <mxCell id="623" value="Want_time" style="ellipse;whiteSpace=wrap;html=1;align=center;fontStyle=1;strokeColor=#00ADEF;strokeWidth=2;" vertex="1" parent="1">
                    <mxGeometry x="2934" y="-969" width="100" height="40" as="geometry"/>
                </mxCell>
            </root>
        </mxGraphModel>
    </diagram>
</mxfile>